/* XPM */
static char *result[] = {
/* columns rows colors chars-per-pixel */
"64 64 4 1 ",
"  c #E45C10",
". c #B8F818",
"X c #FFA044",
"o c #FFC07A",
/* pixels */
"oooooooooooooooooooooooo................oooooooooooooooooooooooo",
"oooooooooooooooooooooooo................oooooooooooooooooooooooo",
"oooooooooooooooooooooooo................oooooooooooooooooooooooo",
"oooooooooooooooooooooooo................oooooooooooooooooooooooo",
"oooooooooooo                ....................oooooooooooooooo",
"oooooooooooo                ....................oooooooooooooooo",
"oooooooooooo                ....................oooooooooooooooo",
"oooooooooooo                ....................oooooooooooooooo",
"oooooooo                        ........XXXX............oooooooo",
"oooooooo                        ........XXXX............oooooooo",
"oooooooo                        ........XXXX............oooooooo",
"oooooooo                        ........XXXX............oooooooo",
"oooooooooooo                        XXXXXXXX................oooo",
"oooooooooooo                        XXXXXXXX................oooo",
"oooooooooooo                        XXXXXXXX................oooo",
"oooooooooooo                        XXXXXXXX................oooo",
"    ooooooooXXXX....XXXXXXXX    XXXXXXXXXXXX........oooo....oooo",
"    ooooooooXXXX....XXXXXXXX    XXXXXXXXXXXX........oooo....oooo",
"    ooooooooXXXX....XXXXXXXX    XXXXXXXXXXXX........oooo....oooo",
"    ooooooooXXXX....XXXXXXXX    XXXXXXXXXXXX........oooo....oooo",
"    XXXXXXXXXXXX    XXXXXXXX    XXXXXXXX        ....oooooooooooo",
"    XXXXXXXXXXXX    XXXXXXXX    XXXXXXXX        ....oooooooooooo",
"    XXXXXXXXXXXX    XXXXXXXX    XXXXXXXX        ....oooooooooooo",
"    XXXXXXXXXXXX    XXXXXXXX    XXXXXXXX        ....oooooooooooo",
"    ooooooooXXXXXXXXXXXXXXXXXXXXXXXX            oooooooooooooooo",
"    ooooooooXXXXXXXXXXXXXXXXXXXXXXXX            oooooooooooooooo",
"    ooooooooXXXXXXXXXXXXXXXXXXXXXXXX            oooooooooooooooo",
"    ooooooooXXXXXXXXXXXXXXXXXXXXXXXX            oooooooooooooooo",
"    ooooooooXXXXXXXXXXXXXXXX................oooooooooooooooooooo",
"    ooooooooXXXXXXXXXXXXXXXX................oooooooooooooooooooo",
"    ooooooooXXXXXXXXXXXXXXXX................oooooooooooooooooooo",
"    ooooooooXXXXXXXXXXXXXXXX................oooooooooooooooooooo",
"    XXXX            ............................    oooooooooooo",
"    XXXX            ............................    oooooooooooo",
"    XXXX            ............................    oooooooooooo",
"    XXXX            ............................    oooooooooooo",
"    XXXX        ............XXXXXXXXXXXX....            oooooooo",
"    XXXX        ............XXXXXXXXXXXX....            oooooooo",
"    XXXX        ............XXXXXXXXXXXX....            oooooooo",
"    XXXX        ............XXXXXXXXXXXX....            oooooooo",
"    oooo        ............XXXXXXXXXXXX                oooooooo",
"    oooo        ............XXXXXXXXXXXX                oooooooo",
"    oooo        ............XXXXXXXXXXXX                oooooooo",
"    oooo        ............XXXXXXXXXXXX                oooooooo",
"    oooooooooooo    ............XXXXXXXX                oooooooo",
"    oooooooooooo    ............XXXXXXXX                oooooooo",
"    oooooooooooo    ............XXXXXXXX                oooooooo",
"    oooooooooooo    ............XXXXXXXX                oooooooo",
"    oooooooooooo                ........        ....oooooooooooo",
"    oooooooooooo                ........        ....oooooooooooo",
"    oooooooooooo                ........        ....oooooooooooo",
"    oooooooooooo                ........        ....oooooooooooo",
"oooooooooooooooo........................................oooooooo",
"oooooooooooooooo........................................oooooooo",
"oooooooooooooooo........................................oooooooo",
"oooooooooooooooo........................................oooooooo",
"oooooooooooooooooooooooooooo                oooooooooooooooooooo",
"oooooooooooooooooooooooooooo                oooooooooooooooooooo",
"oooooooooooooooooooooooooooo                oooooooooooooooooooo",
"oooooooooooooooooooooooooooo                oooooooooooooooooooo",
"oooooooooooooooooooooooo                    oooooooooooooooooooo",
"oooooooooooooooooooooooo                    oooooooooooooooooooo",
"oooooooooooooooooooooooo                    oooooooooooooooooooo",
"oooooooooooooooooooooooo                    oooooooooooooooooooo"
};
