/* XPM */
static char *result[] = {
/* columns rows colors chars-per-pixel */
"64 64 6 1 ",
"  c #E45C10",
". c #F88F37",
"X c #B8F818",
"o c #FA9946",
"O c #FFA044",
"+ c #FFC07A",
/* pixels */
"++++++++++++++++++++XXXXXXXXXXXXXXXXXXXXXXXX++++++++++++++++++++",
"++++++++++++++++++++XXXXXXXXXXXXXXXXXXXXXXXX++++++++++++++++++++",
"++++++++++++++++++++XXXXXXXXXXXXXXXXXXXXXXXX++++++++++++++++++++",
"++++++++++++++++++++XXXXXXXXXXXXXXXXXXXXXXXX++++++++++++++++++++",
"++++++++++++++++XXXXXXXXXXXXXXXXXXXXXXXXXXXXXXXX++++++++++++++++",
"++++++++++++++++XXXXXXXXXXXXXXXXXXXXXXXXXXXXXXXX++++++++++++++++",
"++++++++++++++++XXXXXXXXXXXXXXXXXXXXXXXXXXXXXXXX++++++++++++++++",
"++++++++++++++++XXXXXXXXXXXXXXXXXXXXXXXXXXXXXXXX++++++++++++++++",
"++++++++OOOO++++XXXX                        XXXX++++OOOO++++++++",
"++++++++OOOO++++XXXX                        XXXX++++OOOO++++++++",
"++++++++OOOO++++XXXX                        XXXX++++OOOO++++++++",
"++++++++OOOO++++XXXX                        XXXX++++OOOO++++++++",
"++++++++OOOO++++                                ++++OOOO++++++++",
"++++++++OOOO++++                                ++++OOOO++++++++",
"++++++++OOOO++++                                ++++OOOO++++++++",
"++++++++OOOO++++                                ++++OOOO++++++++",
"++++++++OOOOOOOO    OOOOXXXXOOOOOOOOXXXXOOOO    OOOOOOOO++++++++",
"++++++++OOOOOOOO    OOOOXXXXOOOOOOOOXXXXOOOO    OOOOOOOO++++++++",
"++++++++OOOOOOOO    OOOOXXXXOOOOOOOOXXXXOOOO    OOOOOOOO++++++++",
"++++++++OOOOOOOO    OOOOXXXXOOOOOOOOXXXXOOOO    OOOOOOOO++++++++",
"++++++++OOOOOOOO    OOOO    OOOOOOOO    OOOO    OOOOOOOO++++++++",
"++++++++OOOOOOOO    OOOO    OOOOOOOO    OOOO    OOOOOOOO++++++++",
"++++++++OOOOOOOO    OOOO    OOOOOOOO    OOOO    OOOOOOOO++++++++",
"++++++++OOOOOOOO    OOOO    OOOOOOOO    OOOO    OOOOOOOO++++++++",
"++++++++++++OOOOOOOOOOOOOOOOOOOOOOOOOOOOOOOOOOOOOOOO    ++++++++",
"++++++++++++OOOOOOOOOOOOOOOOOOOOOOOOOOOOOOOOOOOOOOOO    ++++++++",
"++++++++++++OOOOOOOOOOOOOOOOOOOOOOOOOOOOOOOOOOOOOOOO    ++++++++",
"++++++++++++OOOOOOOOOOOOOOOOOOOOOOOOOOOOOOOOOOOOOOOO    ++++++++",
"++++++++++++XXXXXXXXOOOOOOOO        OOOOOOOOXXXXXXXX    ++++++++",
"++++++++++++XXXXXXXXOOOOOOOO        OOOOOOOOXXXXXXXX    ++++++++",
"++++++++++++XXXXXXXXOOOOOOOO        OOOOOOOOXXXXXXXX    ++++++++",
"++++++++++++XXXXXXXXOOOOOOOO        OOOOOOOOXXXXXXXX    ++++++++",
"++++                    OOOOOOOOOOOOOOOOXXXXXXXX            ++++",
"++++                    OOOOOOOOOOOOOOOOXXXXXXXX            ++++",
"++++                    OOOOOOOOOOOOOOOOXXXXXXXX            ++++",
"++++                    OOOOOOOOOOOOOOOOXXXXXXXX            ++++",
"        OOOO                XXXXXXXXXXXXXXXXXXXXOOOO        ++++",
"        OOOO                XXXXXXXXXXXXXXXXXXXXOOOO        ++++",
"        OOOO                XXXXXXXXXXXXXXXXXXXXOOOO        ++++",
"        OOOO                XXXXXXXXXXXXXXXXXXXXOOOO        ++++",
"    OOOOOOOOOOOO        OOOO        XXXXXXXXOOOOOOOOOOOO    ++++",
"    OOOOOOOOOOOO        OOOO        XXXXXXXXOOOOOOOOOOOO    ++++",
"    OOOOOOOOOOOO        OOOO        XXXXXXXXOOOOOOOOOOOO    ++++",
"    OOOOOOOOOOOO        OOOO        XXXXXXXXOOOOOOOOOOOO    ++++",
"        OOOO            OOOOXXXX                OOOOOOOOOOOO++++",
"        OOOO            OOOOXXXX                OOOOOOOOOOOO++++",
"        OOOO            OOOOXXXX                OOOOOOOOOOOO++++",
"        OOOO            OOOOXXXX                OOOOOOOOOOOO++++",
"        OOOO            OOOO        XXXXXXXXXXXXXXXXOOOO++++++++",
"        OOOO            OOOO        XXXXXXXXXXXXXXXXOOOO++++++++",
"        OOOO            OOOO        XXXXXXXXXXXXXXXXOOOO++++++++",
"        OOOO            OOOO        XXXXXXXXXXXXXXXXOOOO++++++++",
"                        ....XXXXXXXXXXXXXXXXXXXX++++++++++++++++",
"                        ....XXXXXXXXXXXXXXXXXXXX++++++++++++++++",
"                        ....XXXXXXXXXXXXXXXXXXXX++++++++++++++++",
"                        ....XXXXXXXXXXXXXXXXXXXX++++++++++++++++",
"++++OOOOOOOOOOOOOOOOoooo    ++++++++            ++++++++++++++++",
"++++OOOOOOOOOOOOOOOOoooo    ++++++++            ++++++++++++++++",
"++++OOOOOOOOOOOOOOOOoooo    ++++++++            ++++++++++++++++",
"++++OOOOOOOOOOOOOOOOoooo    ++++++++            ++++++++++++++++",
"++++++++++++++++            ++++++++++++++++++++++++++++++++++++",
"++++++++++++++++            ++++++++++++++++++++++++++++++++++++",
"++++++++++++++++            ++++++++++++++++++++++++++++++++++++",
"++++++++++++++++            ++++++++++++++++++++++++++++++++++++"
};
