/* XPM */
static char *result[] = {
/* columns rows colors chars-per-pixel */
"64 64 6 1 ",
"  c #E45C10",
". c #B8F818",
"X c #C3D116",
"o c #C0DB17",
"O c #FFA044",
"+ c #FFC07A",
/* pixels */
"++++++++++++++++++++++++++++++++++++++++++++++++++++++++++++++++",
"++++++++++++++++++++++++++++++++++++++++++++++++++++++++++++++++",
"++++++++++++++++++++++++++++++++++++++++++++++++++++++++++++++++",
"++++++++++++++++++++++++++++++++++++++++++++++++++++++++++++++++",
"++++++++++++++++++++++++................++++++++++++++++++++++++",
"++++++++++++++++++++++++................++++++++++++++++++++++++",
"++++++++++++++++++++++++................++++++++++++++++++++++++",
"++++++++++++++++++++++++................++++++++++++++++++++++++",
"++++++++++++                ....................++++++++++++++++",
"++++++++++++                ....................++++++++++++++++",
"++++++++++++                ....................++++++++++++++++",
"++++++++++++                ....................++++++++++++++++",
"++++++++                        ........OOOO............++++++++",
"++++++++                        ........OOOO............++++++++",
"++++++++                        ........OOOO............++++++++",
"++++++++                        ........OOOO............++++++++",
"++++++++++++                        OOOOOOOO................++++",
"++++++++++++                        OOOOOOOO................++++",
"++++++++++++                        OOOOOOOO................++++",
"++++++++++++                        OOOOOOOO................++++",
"++++++++++++OOOO....OOOOOOOO    OOOOOOOOOOOO........++++....++++",
"++++++++++++OOOO....OOOOOOOO    OOOOOOOOOOOO........++++....++++",
"++++++++++++OOOO....OOOOOOOO    OOOOOOOOOOOO........++++....++++",
"++++++++++++OOOO....OOOOOOOO    OOOOOOOOOOOO........++++....++++",
"++++OOOOOOOOOOOO    OOOOOOOO    OOOOOOOO        ....++++++++++++",
"++++OOOOOOOOOOOO    OOOOOOOO    OOOOOOOO        ....++++++++++++",
"++++OOOOOOOOOOOO    OOOOOOOO    OOOOOOOO        ....++++++++++++",
"++++OOOOOOOOOOOO    OOOOOOOO    OOOOOOOO        ....++++++++++++",
"++++    ++++OOOOOOOOOOOOOOOOOOOOOOOO            ++++++++++++++++",
"++++    ++++OOOOOOOOOOOOOOOOOOOOOOOO            ++++++++++++++++",
"++++    ++++OOOOOOOOOOOOOOOOOOOOOOOO            ++++++++++++++++",
"++++    ++++OOOOOOOOOOOOOOOOOOOOOOOO            ++++++++++++++++",
"++++    ++++OOOOOOOOOOOOOOOO................++++++++++++++++++++",
"++++    ++++OOOOOOOOOOOOOOOO................++++++++++++++++++++",
"++++    ++++OOOOOOOOOOOOOOOO................++++++++++++++++++++",
"++++    ++++OOOOOOOOOOOOOOOO................++++++++++++++++++++",
"++++    OOOO        OOOOOOOOOOOO........        ....++++++++++++",
"++++    OOOO        OOOOOOOOOOOO........        ....++++++++++++",
"++++    OOOO        OOOOOOOOOOOO........        ....++++++++++++",
"++++    OOOO        OOOOOOOOOOOO........        ....++++++++++++",
"++++    OOOO    ....OOOOOOOOOOOO                    ++++++++++++",
"++++    OOOO    ....OOOOOOOOOOOO                    ++++++++++++",
"++++    OOOO    ....OOOOOOOOOOOO                    ++++++++++++",
"++++    OOOO    ....OOOOOOOOOOOO                    ++++++++++++",
"++++    ++++    ........OOOOOOOO                    ....++++++++",
"++++    ++++    ........OOOOOOOO                    ....++++++++",
"++++    ++++    ........OOOOOOOO                    ....++++++++",
"++++    ++++    ........OOOOOOOO                    ....++++++++",
"++++    ++++++++    ........oooo                ........++++++++",
"++++    ++++++++    ........oooo                ........++++++++",
"++++    ++++++++    ........oooo                ........++++++++",
"++++    ++++++++    ........oooo                ........++++++++",
"++++    ++++XXXX                XXXX................        ++++",
"++++    ++++XXXX                XXXX................        ++++",
"++++    ++++XXXX                XXXX................        ++++",
"++++    ++++XXXX                XXXX................        ++++",
"++++++++        XXXX............................            ++++",
"++++++++        XXXX............................            ++++",
"++++++++        XXXX............................            ++++",
"++++++++        XXXX............................            ++++",
"++++++++++++            ++++++++++++++++++++            ++++++++",
"++++++++++++            ++++++++++++++++++++            ++++++++",
"++++++++++++            ++++++++++++++++++++            ++++++++",
"++++++++++++            ++++++++++++++++++++            ++++++++"
};
