/* XPM */
static char *result[] = {
/* columns rows colors chars-per-pixel */
"64 64 4 1 ",
"  c #E45C10",
". c #B8F818",
"X c #FFA044",
"o c #FFC07A",
/* pixels */
"oooooooooooooooooooooooo................oooooooooooooooooooooooo",
"oooooooooooooooooooooooo................oooooooooooooooooooooooo",
"oooooooooooooooooooooooo................oooooooooooooooooooooooo",
"oooooooooooooooooooooooo................oooooooooooooooooooooooo",
"oooooooooooooooo....................                oooooooooooo",
"oooooooooooooooo....................                oooooooooooo",
"oooooooooooooooo....................                oooooooooooo",
"oooooooooooooooo....................                oooooooooooo",
"oooooooo............XXXX........                        oooooooo",
"oooooooo............XXXX........                        oooooooo",
"oooooooo............XXXX........                        oooooooo",
"oooooooo............XXXX........                        oooooooo",
"oooo................XXXXXXXX                        oooooooooooo",
"oooo................XXXXXXXX                        oooooooooooo",
"oooo................XXXXXXXX                        oooooooooooo",
"oooo................XXXXXXXX                        oooooooooooo",
"oooo....oooo........XXXXXXXXXXXX    XXXXXXXX....XXXXoooooooo    ",
"oooo....oooo........XXXXXXXXXXXX    XXXXXXXX....XXXXoooooooo    ",
"oooo....oooo........XXXXXXXXXXXX    XXXXXXXX....XXXXoooooooo    ",
"oooo....oooo........XXXXXXXXXXXX    XXXXXXXX....XXXXoooooooo    ",
"oooooooooooo....        XXXXXXXX    XXXXXXXX    XXXXXXXXXXXX    ",
"oooooooooooo....        XXXXXXXX    XXXXXXXX    XXXXXXXXXXXX    ",
"oooooooooooo....        XXXXXXXX    XXXXXXXX    XXXXXXXXXXXX    ",
"oooooooooooo....        XXXXXXXX    XXXXXXXX    XXXXXXXXXXXX    ",
"oooooooooooooooo            XXXXXXXXXXXXXXXXXXXXXXXXoooooooo    ",
"oooooooooooooooo            XXXXXXXXXXXXXXXXXXXXXXXXoooooooo    ",
"oooooooooooooooo            XXXXXXXXXXXXXXXXXXXXXXXXoooooooo    ",
"oooooooooooooooo            XXXXXXXXXXXXXXXXXXXXXXXXoooooooo    ",
"oooooooooooooooooooo................XXXXXXXXXXXXXXXXoooooooo    ",
"oooooooooooooooooooo................XXXXXXXXXXXXXXXXoooooooo    ",
"oooooooooooooooooooo................XXXXXXXXXXXXXXXXoooooooo    ",
"oooooooooooooooooooo................XXXXXXXXXXXXXXXXoooooooo    ",
"oooooooooooo    ............................            XXXX    ",
"oooooooooooo    ............................            XXXX    ",
"oooooooooooo    ............................            XXXX    ",
"oooooooooooo    ............................            XXXX    ",
"oooooooo            ....XXXXXXXXXXXX............        XXXX    ",
"oooooooo            ....XXXXXXXXXXXX............        XXXX    ",
"oooooooo            ....XXXXXXXXXXXX............        XXXX    ",
"oooooooo            ....XXXXXXXXXXXX............        XXXX    ",
"oooooooo                XXXXXXXXXXXX............        oooo    ",
"oooooooo                XXXXXXXXXXXX............        oooo    ",
"oooooooo                XXXXXXXXXXXX............        oooo    ",
"oooooooo                XXXXXXXXXXXX............        oooo    ",
"oooooooo                XXXXXXXX............    oooooooooooo    ",
"oooooooo                XXXXXXXX............    oooooooooooo    ",
"oooooooo                XXXXXXXX............    oooooooooooo    ",
"oooooooo                XXXXXXXX............    oooooooooooo    ",
"oooooooooooo....        ........                oooooooooooo    ",
"oooooooooooo....        ........                oooooooooooo    ",
"oooooooooooo....        ........                oooooooooooo    ",
"oooooooooooo....        ........                oooooooooooo    ",
"oooooooo........................................oooooooooooooooo",
"oooooooo........................................oooooooooooooooo",
"oooooooo........................................oooooooooooooooo",
"oooooooo........................................oooooooooooooooo",
"oooooooooooooooooooo                oooooooooooooooooooooooooooo",
"oooooooooooooooooooo                oooooooooooooooooooooooooooo",
"oooooooooooooooooooo                oooooooooooooooooooooooooooo",
"oooooooooooooooooooo                oooooooooooooooooooooooooooo",
"oooooooooooooooooooo                    oooooooooooooooooooooooo",
"oooooooooooooooooooo                    oooooooooooooooooooooooo",
"oooooooooooooooooooo                    oooooooooooooooooooooooo",
"oooooooooooooooooooo                    oooooooooooooooooooooooo"
};
