/* XPM */
static char *result[] = {
/* columns rows colors chars-per-pixel */
"64 64 8 1 ",
"  c #E45C10",
". c #F88F37",
"X c #FA933A",
"o c #B8F818",
"O c #C0DB17",
"+ c #C2E525",
"@ c #FFA044",
"# c #FFC07A",
/* pixels */
"####################oooooooooooooooooooooooo####################",
"####################oooooooooooooooooooooooo####################",
"####################oooooooooooooooooooooooo####################",
"####################oooooooooooooooooooooooo####################",
"################oooooooooooooooooooooooooooooooo################",
"################oooooooooooooooooooooooooooooooo################",
"################oooooooooooooooooooooooooooooooo################",
"################oooooooooooooooooooooooooooooooo################",
"########@@@@####oooo                        oooo####@@@@########",
"########@@@@####oooo                        oooo####@@@@########",
"########@@@@####oooo                        oooo####@@@@########",
"########@@@@####oooo                        oooo####@@@@########",
"########@@@@####                                ####@@@@########",
"########@@@@####                                ####@@@@########",
"########@@@@####                                ####@@@@########",
"########@@@@####                                ####@@@@########",
"########@@@@@@@@    @@@@oooo@@@@@@@@oooo@@@@    @@@@@@@@########",
"########@@@@@@@@    @@@@oooo@@@@@@@@oooo@@@@    @@@@@@@@########",
"########@@@@@@@@    @@@@oooo@@@@@@@@oooo@@@@    @@@@@@@@########",
"########@@@@@@@@    @@@@oooo@@@@@@@@oooo@@@@    @@@@@@@@########",
"########@@@@@@@@    @@@@    @@@@@@@@    @@@@    @@@@@@@@########",
"########@@@@@@@@    @@@@    @@@@@@@@    @@@@    @@@@@@@@########",
"########@@@@@@@@    @@@@    @@@@@@@@    @@@@    @@@@@@@@########",
"########@@@@@@@@    @@@@    @@@@@@@@    @@@@    @@@@@@@@########",
"############@@@@@@@@@@@@@@@@@@@@@@@@@@@@@@@@@@@@@@@@    ########",
"############@@@@@@@@@@@@@@@@@@@@@@@@@@@@@@@@@@@@@@@@    ########",
"############@@@@@@@@@@@@@@@@@@@@@@@@@@@@@@@@@@@@@@@@    ########",
"############@@@@@@@@@@@@@@@@@@@@@@@@@@@@@@@@@@@@@@@@    ########",
"################oooo@@@@....        @@@@@@@@oooo        ########",
"################oooo@@@@....        @@@@@@@@oooo        ########",
"################oooo@@@@....        @@@@@@@@oooo        ########",
"################oooo@@@@....        @@@@@@@@oooo        ########",
"########                    XXXX@@@@@@@@oooooooooooo@@@@########",
"########                    XXXX@@@@@@@@oooooooooooo@@@@########",
"########                    XXXX@@@@@@@@oooooooooooo@@@@########",
"########                    XXXX@@@@@@@@oooooooooooo@@@@########",
"####        @@@@                oooooooooooooooooooo@@@@########",
"####        @@@@                oooooooooooooooooooo@@@@########",
"####        @@@@                oooooooooooooooooooo@@@@########",
"####        @@@@                oooooooooooooooooooo@@@@########",
"####    @@@@@@@@@@@@        @@@@        oooo++++    ############",
"####    @@@@@@@@@@@@        @@@@        oooo++++    ############",
"####    @@@@@@@@@@@@        @@@@        oooo++++    ############",
"####    @@@@@@@@@@@@        @@@@        oooo++++    ############",
"####        @@@@            @@@@oooo            OOOO############",
"####        @@@@            @@@@oooo            OOOO############",
"####        @@@@            @@@@oooo            OOOO############",
"####        @@@@            @@@@oooo            OOOO############",
"####        @@@@            @@@@        oooooooooooo############",
"####        @@@@            @@@@        oooooooooooo############",
"####        @@@@            @@@@        oooooooooooo############",
"####        @@@@            @@@@        oooooooooooo############",
"####                        @@@@oooooooooooo    ################",
"####                        @@@@oooooooooooo    ################",
"####                        @@@@oooooooooooo    ################",
"####                        @@@@oooooooooooo    ################",
"########@@@@@@@@@@@@@@@@@@@@########            ################",
"########@@@@@@@@@@@@@@@@@@@@########            ################",
"########@@@@@@@@@@@@@@@@@@@@########            ################",
"########@@@@@@@@@@@@@@@@@@@@########            ################",
"####################################            ################",
"####################################            ################",
"####################################            ################",
"####################################            ################"
};
