/* XPM */
static char *result[] = {
/* columns rows colors chars-per-pixel */
"64 64 6 1 ",
"  c #E45C10",
". c #B8F818",
"X c #C3D116",
"o c #C0DB17",
"O c #FFA044",
"+ c #FFC07A",
/* pixels */
"++++++++++++++++++++........................++++++++++++++++++++",
"++++++++++++++++++++........................++++++++++++++++++++",
"++++++++++++++++++++........................++++++++++++++++++++",
"++++++++++++++++++++........................++++++++++++++++++++",
"++++++++++++++++................................++++++++++++++++",
"++++++++++++++++................................++++++++++++++++",
"++++++++++++++++................................++++++++++++++++",
"++++++++++++++++................................++++++++++++++++",
"++++++++OOOO++++................................++++OOOO++++++++",
"++++++++OOOO++++................................++++OOOO++++++++",
"++++++++OOOO++++................................++++OOOO++++++++",
"++++++++OOOO++++................................++++OOOO++++++++",
"++++++++OOOO........................................OOOO++++++++",
"++++++++OOOO........................................OOOO++++++++",
"++++++++OOOO........................................OOOO++++++++",
"++++++++OOOO........................................OOOO++++++++",
"++++++++OOOO    ................................    OOOO++++++++",
"++++++++OOOO    ................................    OOOO++++++++",
"++++++++OOOO    ................................    OOOO++++++++",
"++++++++OOOO    ................................    OOOO++++++++",
"++++++++OOOOOOOO        ................        OOOOOOOO++++++++",
"++++++++OOOOOOOO        ................        OOOOOOOO++++++++",
"++++++++OOOOOOOO        ................        OOOOOOOO++++++++",
"++++++++OOOOOOOO        ................        OOOOOOOO++++++++",
"++++++++++++OOOO            ........            OOOO++++++++++++",
"++++++++++++OOOO            ........            OOOO++++++++++++",
"++++++++++++OOOO            ........            OOOO++++++++++++",
"++++++++++++OOOO            ........            OOOO++++++++++++",
"++++++++++++    XXXX                        ....    ++++++++++++",
"++++++++++++    XXXX                        ....    ++++++++++++",
"++++++++++++    XXXX                        ....    ++++++++++++",
"++++++++++++    XXXX                        ....    ++++++++++++",
"++++++++++++        XXXX........................        ++++++++",
"++++++++++++        XXXX........................        ++++++++",
"++++++++++++        XXXX........................        ++++++++",
"++++++++++++        XXXX........................        ++++++++",
"++++++++OOOO        ............................        ++++++++",
"++++++++OOOO        ............................        ++++++++",
"++++++++OOOO        ............................        ++++++++",
"++++++++OOOO        ............................        ++++++++",
"++++++++OOOO        oooo................oooo        ++++++++++++",
"++++++++OOOO        oooo................oooo        ++++++++++++",
"++++++++OOOO        oooo................oooo        ++++++++++++",
"++++++++OOOO        oooo................oooo        ++++++++++++",
"++++++++OOOOOOOOXXXX                        oooo....++++++++++++",
"++++++++OOOOOOOOXXXX                        oooo....++++++++++++",
"++++++++OOOOOOOOXXXX                        oooo....++++++++++++",
"++++++++OOOOOOOOXXXX                        oooo....++++++++++++",
"++++++++++++........................................++++++++++++",
"++++++++++++........................................++++++++++++",
"++++++++++++........................................++++++++++++",
"++++++++++++........................................++++++++++++",
"++++++++++++++++    ....................            ++++++++++++",
"++++++++++++++++    ....................            ++++++++++++",
"++++++++++++++++    ....................            ++++++++++++",
"++++++++++++++++    ....................            ++++++++++++",
"++++++++++++++++++++        ++++++++                ++++++++++++",
"++++++++++++++++++++        ++++++++                ++++++++++++",
"++++++++++++++++++++        ++++++++                ++++++++++++",
"++++++++++++++++++++        ++++++++                ++++++++++++",
"++++++++++++++++++++++++++++++++++++++++        ++++++++++++++++",
"++++++++++++++++++++++++++++++++++++++++        ++++++++++++++++",
"++++++++++++++++++++++++++++++++++++++++        ++++++++++++++++",
"++++++++++++++++++++++++++++++++++++++++        ++++++++++++++++"
};
