/* XPM */
static char *result[] = {
/* columns rows colors chars-per-pixel */
"64 64 7 1 ",
"  c #E45C10",
". c #B8F818",
"X c #C3D116",
"o c #C0DB17",
"O c #FFA044",
"+ c #FFC07A",
"@ c #F8D6C3",
/* pixels */
"++++++++++++++++++++++++++++++++++++++++++++++++++++++++++++++++",
"++++++++++++++++++++++++++++++++++++++++++++++++++++++++++++++++",
"++++++++++++++++++++++++++++++++++++++++++++++++++++++++++++++++",
"++++++++++++++++++++++++++++++++++++++++++++++++++++++++++++++++",
"++++++++++++++++++++++++................++++++++++++++++++++++++",
"++++++++++++++++++++++++................++++++++++++++++++++++++",
"++++++++++++++++++++++++................++++++++++++++++++++++++",
"++++++++++++++++++++++++................++++++++++++++++++++++++",
"++++++++++++++++....................                ++++++++++++",
"++++++++++++++++....................                ++++++++++++",
"++++++++++++++++....................                ++++++++++++",
"++++++++++++++++....................                ++++++++++++",
"++++++++............OOOO........                        ++++++++",
"++++++++............OOOO........                        ++++++++",
"++++++++............OOOO........                        ++++++++",
"++++++++............OOOO........                        ++++++++",
"++++................OOOOOOOO                        ++++++++++++",
"++++................OOOOOOOO                        ++++++++++++",
"++++................OOOOOOOO                        ++++++++++++",
"++++................OOOOOOOO                        ++++++++++++",
"++++....++++........OOOOOOOOOOOO    OOOOOOOO....OOOO++++++++++++",
"++++....++++........OOOOOOOOOOOO    OOOOOOOO....OOOO++++++++++++",
"++++....++++........OOOOOOOOOOOO    OOOOOOOO....OOOO++++++++++++",
"++++....++++........OOOOOOOOOOOO    OOOOOOOO....OOOO++++++++++++",
"++++++++++++....        OOOOOOOO    OOOOOOOO    OOOOOOOOOOOO++++",
"++++++++++++....        OOOOOOOO    OOOOOOOO    OOOOOOOOOOOO++++",
"++++++++++++....        OOOOOOOO    OOOOOOOO    OOOOOOOOOOOO++++",
"++++++++++++....        OOOOOOOO    OOOOOOOO    OOOOOOOOOOOO++++",
"++++++++++++++++            OOOOOOOOOOOOOOOOOOOOOOOO++++    ++++",
"++++++++++++++++            OOOOOOOOOOOOOOOOOOOOOOOO++++    ++++",
"++++++++++++++++            OOOOOOOOOOOOOOOOOOOOOOOO++++    ++++",
"++++++++++++++++            OOOOOOOOOOOOOOOOOOOOOOOO++++    ++++",
"++++++++++++++++++++................OOOOOOOOOOOOOOOO++++    ++++",
"++++++++++++++++++++................OOOOOOOOOOOOOOOO++++    ++++",
"++++++++++++++++++++................OOOOOOOOOOOOOOOO++++    ++++",
"++++++++++++++++++++................OOOOOOOOOOOOOOOO++++    ++++",
"++++++++++++....        ........OOOOOOOOOOOO        OOOO    ++++",
"++++++++++++....        ........OOOOOOOOOOOO        OOOO    ++++",
"++++++++++++....        ........OOOOOOOOOOOO        OOOO    ++++",
"++++++++++++....        ........OOOOOOOOOOOO        OOOO    ++++",
"++++++++++++                    OOOOOOOOOOOO....    OOOO    ++++",
"++++++++++++                    OOOOOOOOOOOO....    OOOO    ++++",
"++++++++++++                    OOOOOOOOOOOO....    OOOO    ++++",
"++++++++++++                    OOOOOOOOOOOO....    OOOO    ++++",
"++++++++....                    OOOOOOOO........    ++++    ++++",
"++++++++....                    OOOOOOOO........    ++++    ++++",
"++++++++....                    OOOOOOOO........    ++++    ++++",
"++++++++....                    OOOOOOOO........    ++++    ++++",
"++++++++........                oooo........    ++++++++    ++++",
"++++++++........                oooo........    ++++++++    ++++",
"++++++++........                oooo........    ++++++++    ++++",
"++++++++........                oooo........    ++++++++    ++++",
"++++        ................XXXX                XXXX++++    ++++",
"++++        ................XXXX                XXXX++++    ++++",
"++++        ................XXXX                XXXX++++    ++++",
"++++        ................XXXX                XXXX++++    ++++",
"++++            ............................XXXX        @@@@++++",
"++++            ............................XXXX        @@@@++++",
"++++            ............................XXXX        @@@@++++",
"++++            ............................XXXX        @@@@++++",
"++++++++            ++++++++++++++++++++            ++++++++++++",
"++++++++            ++++++++++++++++++++            ++++++++++++",
"++++++++            ++++++++++++++++++++            ++++++++++++",
"++++++++            ++++++++++++++++++++            ++++++++++++"
};
