/* XPM */
static char *result[] = {
/* columns rows colors chars-per-pixel */
"64 64 70 1 ",
"  c #F72300",
". c #F72900",
"X c #F72A00",
"o c #F72B00",
"O c #F73300",
"+ c #F73801",
"@ c #F73803",
"# c #F73804",
"$ c #F73A06",
"% c #F73E0B",
"& c #F73B12",
"* c #F74412",
"= c #F7471E",
"- c #F74427",
"; c #F7482E",
": c #F8572B",
"> c #F8582E",
", c #F74B33",
"< c #F74B34",
"1 c #F9643B",
"2 c #F86253",
"3 c #FA6751",
"4 c #FA7753",
"5 c #FA7C5D",
"6 c #FA7E5F",
"7 c #FA7260",
"8 c #F87165",
"9 c #F87368",
"0 c #F8766C",
"q c #F87A70",
"w c #FA8261",
"e c #FA836A",
"r c #FA8D7D",
"t c #FFC07A",
"y c #FAA39D",
"u c #FCB09B",
"i c #FCB29E",
"p c #FCB39E",
"a c #FAA5A0",
"s c #FAA6A1",
"d c #FAA8A3",
"f c #FAABA6",
"g c #FAADA8",
"h c #FAAEA9",
"j c #FBB9B5",
"k c #FBB9B6",
"l c #FBBAB6",
"z c #FBC2BF",
"x c #FCC0BD",
"c c #FCCECC",
"v c #FCD0CE",
"b c #FCD1CF",
"n c #FCD2D0",
"m c #FCD4D2",
"M c #FDE5E3",
"N c #FDE7E5",
"B c #FEEAE9",
"V c #FEEDEC",
"C c #FEF0F0",
"Z c #FEF2F2",
"A c #FEF4F3",
"S c #FEF6F5",
"D c #FFF8F8",
"F c #FFF9F9",
"G c #FFFBFB",
"H c #FFFCFB",
"J c #FFFCFC",
"K c #FFFDFD",
"L c #FFFEFE",
"P c white",
/* pixels */
"tttttttttttttttt::::@@@@@@@@@@@@@@@@@@@@@@@@::::tttttttttttttttt",
"tttttttttttttttt::::@@@@@@@@@@@@@@@@@@@@@@@@::::tttttttttttttttt",
"tttttttttttttttt::::@@@@@@@@@@@@@@@@@@@@@@@@::::tttttttttttttttt",
"tttttttttttttttt::::@@@@@@@@@@@@@@@@@@@@@@@@::::tttttttttttttttt",
"ttttppppwwww4444****@@@@@@@@@@@@@@@@@@@@@@@@****4444wwwwpppptttt",
"ttttppppwwww4444****@@@@@@@@@@@@@@@@@@@@@@@@****4444wwwwpppptttt",
"ttttppppwwww4444****@@@@@@@@@@@@@@@@@@@@@@@@****4444wwwwpppptttt",
"ttttppppwwww4444****@@@@@@@@@@@@@@@@@@@@@@@@****4444wwwwpppptttt",
"uuuu1111@@@@@@@@@@@@@@@@@@@@@@@@@@@@@@@@@@@@@@@@@@@@@@@@1111tttt",
"uuuu1111@@@@@@@@@@@@@@@@@@@@@@@@@@@@@@@@@@@@@@@@@@@@@@@@1111tttt",
"uuuu1111@@@@@@@@@@@@@@@@@@@@@@@@@@@@@@@@@@@@@@@@@@@@@@@@1111tttt",
"uuuu1111@@@@@@@@@@@@@@@@@@@@@@@@@@@@@@@@@@@@@@@@@@@@@@@@1111tttt",
"%%%%$$$$@@@@@@@@@@@@@@@@@@@@@@@@@@@@@@@@@@@@@@@@@@@@@@@@$$$$%%%%",
"%%%%$$$$@@@@@@@@@@@@@@@@@@@@@@@@@@@@@@@@@@@@@@@@@@@@@@@@$$$$%%%%",
"%%%%$$$$@@@@@@@@@@@@@@@@@@@@@@@@@@@@@@@@@@@@@@@@@@@@@@@@$$$$%%%%",
"%%%%$$$$@@@@@@@@@@@@@@@@@@@@@@@@@@@@@@@@@@@@@@@@@@@@@@@@$$$$%%%%",
"@@@@@@@@@@@@@@@@@@@@@@@@@@@@@@@@@@@@@@@@@@@@@@@@@@@@@@@@@@@@@@@@",
"@@@@@@@@@@@@@@@@@@@@@@@@@@@@@@@@@@@@@@@@@@@@@@@@@@@@@@@@@@@@@@@@",
"@@@@@@@@@@@@@@@@@@@@@@@@@@@@@@@@@@@@@@@@@@@@@@@@@@@@@@@@@@@@@@@@",
"@@@@@@@@@@@@@@@@@@@@@@@@@@@@@@@@@@@@@@@@@@@@@@@@@@@@@@@@@@@@@@@@",
"@@@@####OOOOooooooooOOOO####@@@@@@@@####OOOOooooooooOOOO####@@@@",
"@@@@####OOOOooooooooOOOO####@@@@@@@@####OOOOooooooooOOOO####@@@@",
"@@@@####OOOOooooooooOOOO####@@@@@@@@####OOOOooooooooOOOO####@@@@",
"@@@@####OOOOooooooooOOOO####@@@@@@@@####OOOOooooooooOOOO####@@@@",
"++++XXXX8888dddddddd8888    ........    8888dddddddd8888XXXX++++",
"++++XXXX8888dddddddd8888    ........    8888dddddddd8888XXXX++++",
"++++XXXX8888dddddddd8888    ........    8888dddddddd8888XXXX++++",
"++++XXXX8888dddddddd8888    ........    8888dddddddd8888XXXX++++",
"&&&&2222kkkkFFFFFFFFllll0000qqqqqqqq0000llllFFFFFFFFkkkk2222&&&&",
"&&&&2222kkkkFFFFFFFFllll0000qqqqqqqq0000llllFFFFFFFFkkkk2222&&&&",
"&&&&2222kkkkFFFFFFFFllll0000qqqqqqqq0000llllFFFFFFFFkkkk2222&&&&",
"&&&&2222kkkkFFFFFFFFllll0000qqqqqqqq0000llllFFFFFFFFkkkk2222&&&&",
";;;;zzzzSSSSLLLLJJJJCCCCBBBBVVVVVVVVBBBBCCCCJJJJLLLLSSSSzzzz;;;;",
";;;;zzzzSSSSLLLLJJJJCCCCBBBBVVVVVVVVBBBBCCCCJJJJLLLLSSSSzzzz;;;;",
";;;;zzzzSSSSLLLLJJJJCCCCBBBBVVVVVVVVBBBBCCCCJJJJLLLLSSSSzzzz;;;;",
";;;;zzzzSSSSLLLLJJJJCCCCBBBBVVVVVVVVBBBBCCCCJJJJLLLLSSSSzzzz;;;;",
"<<<<mmmmPPPPAAAAjjjjaaaavvvvPPPPPPPPvvvvaaaajjjjAAAAPPPPmmmm<<<<",
"<<<<mmmmPPPPAAAAjjjjaaaavvvvPPPPPPPPvvvvaaaajjjjAAAAPPPPmmmm<<<<",
"<<<<mmmmPPPPAAAAjjjjaaaavvvvPPPPPPPPvvvvaaaajjjjAAAAPPPPmmmm<<<<",
"<<<<mmmmPPPPAAAAjjjjaaaavvvvPPPPPPPPvvvvaaaajjjjAAAAPPPPmmmm<<<<",
"----ffffNNNNZZZZjjjjyyyyccccKKKKKKKKccccyyyyjjjjZZZZNNNNffff----",
"----ffffNNNNZZZZjjjjyyyyccccKKKKKKKKccccyyyyjjjjZZZZNNNNffff----",
"----ffffNNNNZZZZjjjjyyyyccccKKKKKKKKccccyyyyjjjjZZZZNNNNffff----",
"----ffffNNNNZZZZjjjjyyyyccccKKKKKKKKccccyyyyjjjjZZZZNNNNffff----",
">>>>====hhhhGGGGKKKKHHHHKKKKPPPPPPPPKKKKHHHHKKKKGGGGhhhh====>>>>",
">>>>====hhhhGGGGKKKKHHHHKKKKPPPPPPPPKKKKHHHHKKKKGGGGhhhh====>>>>",
">>>>====hhhhGGGGKKKKHHHHKKKKPPPPPPPPKKKKHHHHKKKKGGGGhhhh====>>>>",
">>>>====hhhhGGGGKKKKHHHHKKKKPPPPPPPPKKKKHHHHKKKKGGGGhhhh====>>>>",
"tttt3333ssssDDDDJJJJLLLLPPPPPPPPPPPPPPPPLLLLJJJJDDDDssss3333tttt",
"tttt3333ssssDDDDJJJJLLLLPPPPPPPPPPPPPPPPLLLLJJJJDDDDssss3333tttt",
"tttt3333ssssDDDDJJJJLLLLPPPPPPPPPPPPPPPPLLLLJJJJDDDDssss3333tttt",
"tttt3333ssssDDDDJJJJLLLLPPPPPPPPPPPPPPPPLLLLJJJJDDDDssss3333tttt",
"tttt66669999ssssggggMMMMPPPPPPPPPPPPPPPPMMMMggggssss99996666tttt",
"tttt66669999ssssggggMMMMPPPPPPPPPPPPPPPPMMMMggggssss99996666tttt",
"tttt66669999ssssggggMMMMPPPPPPPPPPPPPPPPMMMMggggssss99996666tttt",
"tttt66669999ssssggggMMMMPPPPPPPPPPPPPPPPMMMMggggssss99996666tttt",
"ttttiiii55557777eeeexxxxnnnnbbbbbbbbnnnnxxxxeeee77775555iiiitttt",
"ttttiiii55557777eeeexxxxnnnnbbbbbbbbnnnnxxxxeeee77775555iiiitttt",
"ttttiiii55557777eeeexxxxnnnnbbbbbbbbnnnnxxxxeeee77775555iiiitttt",
"ttttiiii55557777eeeexxxxnnnnbbbbbbbbnnnnxxxxeeee77775555iiiitttt",
"ttttttttttttttttttttrrrr,,,,,,,,,,,,,,,,rrrrtttttttttttttttttttt",
"ttttttttttttttttttttrrrr,,,,,,,,,,,,,,,,rrrrtttttttttttttttttttt",
"ttttttttttttttttttttrrrr,,,,,,,,,,,,,,,,rrrrtttttttttttttttttttt",
"ttttttttttttttttttttrrrr,,,,,,,,,,,,,,,,rrrrtttttttttttttttttttt"
};
