/* XPM */
static char *result[] = {
/* columns rows colors chars-per-pixel */
"64 64 68 1 ",
"  c #F60000",
". c #F72300",
"X c #F72900",
"o c #F72A00",
"O c #F72B00",
"+ c #F73300",
"@ c #F73801",
"# c #F73803",
"$ c #F73804",
"% c #F73A06",
"& c #F73E0B",
"* c #F73B12",
"= c #F74412",
"- c #F7471E",
"; c #F74427",
": c #F7482E",
"> c #F8572B",
", c #F8582E",
"< c #F74B33",
"1 c #F74B34",
"2 c #F9643B",
"3 c #F86253",
"4 c #FA6751",
"5 c #FA7753",
"6 c #FA7C5D",
"7 c #FA7E5F",
"8 c #FA7260",
"9 c #F87165",
"0 c #F87266",
"q c #F87368",
"w c #F8766C",
"e c #F87A70",
"r c #FA8261",
"t c #FA836A",
"y c #FA8D7D",
"u c #FFC07A",
"i c #F99B95",
"p c #FCB09B",
"a c #FCB29E",
"s c #FCB39E",
"d c #FAA6A1",
"f c #FAA7A2",
"g c #FAA8A3",
"h c #FAABA6",
"j c #FAAFAB",
"k c #FAB0AC",
"l c #FBB9B6",
"z c #FBBAB6",
"x c #FBBBB8",
"c c #FBC2BF",
"v c #FCC0BD",
"b c #FCD1CF",
"n c #FCD2D0",
"m c #FCD4D2",
"M c #FDDAD0",
"N c #FDE7E6",
"B c #FEEAE9",
"V c #FEEBEA",
"C c #FEEDEC",
"Z c #FEF0F0",
"A c #FEF4F4",
"S c #FEF5F5",
"D c #FEF6F5",
"F c #FFF9F9",
"G c #FFFCFC",
"H c #FFFEFE",
"J c #FFFFFE",
"K c white",
/* pixels */
"uuuuuuuuuuuuMMMM>>>>>######################>>>>>MMMMuuuuuuuuuuuu",
"uuuuuuuuuuuuMMMM>>>>>######################>>>>>MMMMuuuuuuuuuuuu",
"uuuuuuuuuuuuMMMM>>>>>######################>>>>>MMMMuuuuuuuuuuuu",
"uuuuuuuuuuuuMMMM>>>>>######################>>>>>MMMMuuuuuuuuuuuu",
"uuuussssrrrr5555=====######################=====5555rrrrssssuuuu",
"uuuussssrrrr5555=====######################=====5555rrrrssssuuuu",
"uuuussssrrrr5555=====######################=====5555rrrrssssuuuu",
"uuuussssrrrr5555=====######################=====5555rrrrssssuuuu",
"pppp2222################################################2222pppp",
"pppp2222################################################2222pppp",
"pppp2222################################################2222pppp",
"pppp2222################################################2222pppp",
"&&&&%%%%################################################%%%%&&&&",
"&&&&%%%%################################################%%%%&&&&",
"&&&&%%%%################################################%%%%&&&&",
"&&&&%%%%################################################%%%%&&&&",
"################################################################",
"################################################################",
"################################################################",
"################################################################",
"################################################################",
"####$$$$++++OOOOOOOOO+++$$$$########$$$$+++OOOOOOOOO++++$$$$####",
"####$$$$++++OOOOOOOOO+++$$$$########$$$$+++OOOOOOOOO++++$$$$####",
"####$$$$++++OOOOOOOOO+++$$$$########$$$$+++OOOOOOOOO++++$$$$####",
"@@@@oooo9999ggggggggg999....XXXXXXXX....999ggggggggg9999oooo@@@@",
"@@@@oooo9999ggggggggg999....XXXXXXXX....999ggggggggg9999oooo@@@@",
"@@@@oooo9999ggggggggg999....XXXXXXXX....999ggggggggg9999oooo@@@@",
"@@@@oooo9999ggggggggg999....XXXXXXXX....999ggggggggg9999oooo@@@@",
"****3333llllFFFFFFFFFzzzwwwweeeeeeeewwwwzzzFFFFFFFFFllll3333****",
"****3333llllFFFFFFFFFzzzwwwweeeeeeeewwwwzzzFFFFFFFFFllll3333****",
"****3333llllFFFFFFFFFzzzwwwweeeeeeeewwwwzzzFFFFFFFFFllll3333****",
"****3333llllFFFFFFFFFzzzwwwweeeeeeeewwwwzzzFFFFFFFFFllll3333****",
"****3333llllFFFFFFFFFzzzwwwweeeeeeeewwwwzzzFFFFFFFFFllll3333****",
"::::ccccDDDDHHHHGGGGGZZZBBBBCCCCCCCCBBBBZZZGGGGGHHHHDDDDcccc::::",
"::::ccccDDDDHHHHGGGGGZZZBBBBCCCCCCCCBBBBZZZGGGGGHHHHDDDDcccc::::",
"::::ccccDDDDHHHHGGGGGZZZBBBBCCCCCCCCBBBBZZZGGGGGHHHHDDDDcccc::::",
"1111mmmmKKKKAAAAxxxxxgggnnnnKKKKKKKKnnnngggxxxxxAAAAKKKKmmmm1111",
"1111mmmmKKKKAAAAxxxxxgggnnnnKKKKKKKKnnnngggxxxxxAAAAKKKKmmmm1111",
"1111mmmmKKKKAAAAxxxxxgggnnnnKKKKKKKKnnnngggxxxxxAAAAKKKKmmmm1111",
"1111mmmmKKKKAAAAxxxxxgggnnnnKKKKKKKKnnnngggxxxxxAAAAKKKKmmmm1111",
";;;;hhhhNNNNVVVV00000   ddddGGGGGGGGdddd   00000VVVVNNNNhhhh;;;;",
";;;;hhhhNNNNVVVV00000   ddddGGGGGGGGdddd   00000VVVVNNNNhhhh;;;;",
";;;;hhhhNNNNVVVV00000   ddddGGGGGGGGdddd   00000VVVVNNNNhhhh;;;;",
",,,,----kkkkCCCCiiiii000xxxxGGGGGGGGxxxx000iiiiiCCCCkkkk----,,,,",
",,,,----kkkkCCCCiiiii000xxxxGGGGGGGGxxxx000iiiiiCCCCkkkk----,,,,",
",,,,----kkkkCCCCiiiii000xxxxGGGGGGGGxxxx000iiiiiCCCCkkkk----,,,,",
",,,,----kkkkCCCCiiiii000xxxxGGGGGGGGxxxx000iiiiiCCCCkkkk----,,,,",
",,,,----kkkkCCCCiiiii000xxxxGGGGGGGGxxxx000iiiiiCCCCkkkk----,,,,",
"uuuu4444ffffSSSSCCCCCVVVAAAAJJJJJJJJAAAAVVVCCCCCSSSSffff4444uuuu",
"uuuu4444ffffSSSSCCCCCVVVAAAAJJJJJJJJAAAAVVVCCCCCSSSSffff4444uuuu",
"uuuu4444ffffSSSSCCCCCVVVAAAAJJJJJJJJAAAAVVVCCCCCSSSSffff4444uuuu",
"uuuu4444ffffSSSSCCCCCVVVAAAAJJJJJJJJAAAAVVVCCCCCSSSSffff4444uuuu",
"uuuu7777qqqqffffjjjjjNNNKKKKKKKKKKKKKKKKNNNjjjjjffffqqqq7777uuuu",
"uuuu7777qqqqffffjjjjjNNNKKKKKKKKKKKKKKKKNNNjjjjjffffqqqq7777uuuu",
"uuuu7777qqqqffffjjjjjNNNKKKKKKKKKKKKKKKKNNNjjjjjffffqqqq7777uuuu",
"uuuu7777qqqqffffjjjjjNNNKKKKKKKKKKKKKKKKNNNjjjjjffffqqqq7777uuuu",
"uuuuaaaa66668888tttttvvvnnnnbbbbbbbbnnnnvvvttttt88886666aaaauuuu",
"uuuuaaaa66668888tttttvvvnnnnbbbbbbbbnnnnvvvttttt88886666aaaauuuu",
"uuuuaaaa66668888tttttvvvnnnnbbbbbbbbnnnnvvvttttt88886666aaaauuuu",
"uuuuaaaa66668888tttttvvvnnnnbbbbbbbbnnnnvvvttttt88886666aaaauuuu",
"uuuuuuuuuuuuuuuuuuuuuyyy<<<<<<<<<<<<<<<<yyyuuuuuuuuuuuuuuuuuuuuu",
"uuuuuuuuuuuuuuuuuuuuuyyy<<<<<<<<<<<<<<<<yyyuuuuuuuuuuuuuuuuuuuuu",
"uuuuuuuuuuuuuuuuuuuuuyyy<<<<<<<<<<<<<<<<yyyuuuuuuuuuuuuuuuuuuuuu",
"uuuuuuuuuuuuuuuuuuuuuyyy<<<<<<<<<<<<<<<<yyyuuuuuuuuuuuuuuuuuuuuu"
};
