/* XPM */
static char *d7765656f2214263e58160359031b597WjQh9NLzP2PXtHhT[] = {
/* columns rows colors chars-per-pixel */
"64 64 3 1 ",
"  c black",
". c #C03800",
"X c #FFC07A",
/* pixels */
"................................................................",
"................................................................",
"................................................................",
"................................................................",
"....                                                        ....",
"....                                                        ....",
"....                                                        ....",
"....                                                        ....",
"....XXXXXXXX                                                ....",
"....XXXXXXXX                                                ....",
"....XXXXXXXX                                                ....",
"....XXXXXXXX                                                ....",
"....XXXXXXXX....                                            ....",
"....XXXXXXXX....                                            ....",
"....XXXXXXXX....                                            ....",
"....XXXXXXXX....                                            ....",
"....XXXXXXXX....XXXXXXXXXXXX                                ....",
"....XXXXXXXX....XXXXXXXXXXXX                                ....",
"....XXXXXXXX....XXXXXXXXXXXX                                ....",
"....XXXXXXXX....XXXXXXXXXXXX                                ....",
"....XXXXXXXX....XXXXXXXXXXXX....                            ....",
"....XXXXXXXX....XXXXXXXXXXXX....                            ....",
"....XXXXXXXX....XXXXXXXXXXXX....                            ....",
"....XXXXXXXX....XXXXXXXXXXXX....                            ....",
"....XXXXXXXX....XXXXXXXXXXXX....XXXXXXXXXXXX                ....",
"....XXXXXXXX....XXXXXXXXXXXX....XXXXXXXXXXXX                ....",
"....XXXXXXXX....XXXXXXXXXXXX....XXXXXXXXXXXX                ....",
"....XXXXXXXX....XXXXXXXXXXXX....XXXXXXXXXXXX                ....",
"....XXXXXXXX....XXXXXXXXXXXX....XXXXXXXXXXXX....            ....",
"....XXXXXXXX....XXXXXXXXXXXX....XXXXXXXXXXXX....            ....",
"....XXXXXXXX....XXXXXXXXXXXX....XXXXXXXXXXXX....            ....",
"....XXXXXXXX....XXXXXXXXXXXX....XXXXXXXXXXXX....            ....",
"....XXXXXXXX....XXXXXXXXXXXX....XXXXXXXXXXXX....XXXXXXXXXXXX....",
"....XXXXXXXX....XXXXXXXXXXXX....XXXXXXXXXXXX....XXXXXXXXXXXX....",
"....XXXXXXXX....XXXXXXXXXXXX....XXXXXXXXXXXX....XXXXXXXXXXXX....",
"....XXXXXXXX....XXXXXXXXXXXX....XXXXXXXXXXXX....XXXXXXXXXXXX....",
"....XXXXXXXX....XXXXXXXXXXXX....XXXXXXXXXXXX....XXXXXXXXXXXX....",
"....XXXXXXXX....XXXXXXXXXXXX....XXXXXXXXXXXX....XXXXXXXXXXXX....",
"....XXXXXXXX....XXXXXXXXXXXX....XXXXXXXXXXXX....XXXXXXXXXXXX....",
"....XXXXXXXX....XXXXXXXXXXXX....XXXXXXXXXXXX....XXXXXXXXXXXX....",
"....XXXXXXXX....XXXXXXXXXXXX....XXXXXXXXXXXX....XXXXXXXXXXXX....",
"....XXXXXXXX....XXXXXXXXXXXX....XXXXXXXXXXXX....XXXXXXXXXXXX....",
"....XXXXXXXX....XXXXXXXXXXXX....XXXXXXXXXXXX....XXXXXXXXXXXX....",
"....XXXXXXXX....XXXXXXXXXXXX....XXXXXXXXXXXX....XXXXXXXXXXXX....",
"....XXXXXXXX....XXXXXXXXXXXX....XXXXXXXXXXXX....XXXXXXXXXXXX....",
"....XXXXXXXX....XXXXXXXXXXXX....XXXXXXXXXXXX....XXXXXXXXXXXX....",
"....XXXXXXXX....XXXXXXXXXXXX....XXXXXXXXXXXX....XXXXXXXXXXXX....",
"....XXXXXXXX....XXXXXXXXXXXX....XXXXXXXXXXXX....XXXXXXXXXXXX....",
"....XXXXXXXX....XXXXXXXXXXXX....XXXXXXXXXXXX....XXXXXXXXXXXX....",
"....XXXXXXXX....XXXXXXXXXXXX....XXXXXXXXXXXX....XXXXXXXXXXXX....",
"....XXXXXXXX....XXXXXXXXXXXX....XXXXXXXXXXXX....XXXXXXXXXXXX....",
"....XXXXXXXX....XXXXXXXXXXXX....XXXXXXXXXXXX....XXXXXXXXXXXX....",
"....XXXXXXXX....XXXXXXXXXXXX....XXXXXXXXXXXX....XXXXXXXXXXXX....",
"....XXXXXXXX....XXXXXXXXXXXX....XXXXXXXXXXXX....XXXXXXXXXXXX....",
"....XXXXXXXX....XXXXXXXXXXXX....XXXXXXXXXXXX....XXXXXXXXXXXX....",
"....XXXXXXXX....XXXXXXXXXXXX....XXXXXXXXXXXX....XXXXXXXXXXXX....",
"....XXXXXXXX....XXXXXXXXXXXX....XXXXXXXXXXXX....XXXXXXXXXXXX....",
"....XXXXXXXX....XXXXXXXXXXXX....XXXXXXXXXXXX....XXXXXXXXXXXX....",
"....XXXXXXXX....XXXXXXXXXXXX....XXXXXXXXXXXX....XXXXXXXXXXXX....",
"....XXXXXXXX....XXXXXXXXXXXX....XXXXXXXXXXXX....XXXXXXXXXXXX....",
"................................................................",
"................................................................",
"................................................................",
"................................................................"
};
