/* XPM */
static char *result[] = {
/* columns rows colors chars-per-pixel */
"64 64 3 1 ",
"  c black",
". c #C03800",
"X c #FFC07A",
/* pixels */
"XXXXXXXXXXXXXXXXXXXXXXXXXXXXXXXXXXXXXXXX........        XXXXXXXX",
"XXXXXXXXXXXXXXXXXXXXXXXXXXXXXXXXXXXXXXXX........        XXXXXXXX",
"XXXXXXXXXXXXXXXXXXXXXXXXXXXXXXXXXXXXXXXX........        XXXXXXXX",
"XXXXXXXXXXXXXXXXXXXXXXXXXXXXXXXXXXXXXXXX........        XXXXXXXX",
"XXXXXXXXXXXXXXXXXXXXXXXXXXXXXXXXXXXX................        XXXX",
"XXXXXXXXXXXXXXXXXXXXXXXXXXXXXXXXXXXX................        XXXX",
"XXXXXXXXXXXXXXXXXXXXXXXXXXXXXXXXXXXX................        XXXX",
"XXXXXXXXXXXXXXXXXXXXXXXXXXXXXXXXXXXX................        XXXX",
"XXXXXXXXXXXXXXXXXXXXXXXXXXXXXXXX........................    XXXX",
"XXXXXXXXXXXXXXXXXXXXXXXXXXXXXXXX........................    XXXX",
"XXXXXXXXXXXXXXXXXXXXXXXXXXXXXXXX........................    XXXX",
"XXXXXXXXXXXXXXXXXXXXXXXXXXXXXXXX........................    XXXX",
"XXXXXXXXXXXXXXXXXXXXXXXXXXXXXXXXXXXX....................        ",
"XXXXXXXXXXXXXXXXXXXXXXXXXXXXXXXXXXXX....................        ",
"XXXXXXXXXXXXXXXXXXXXXXXXXXXXXXXXXXXX....................        ",
"XXXXXXXXXXXXXXXXXXXXXXXXXXXXXXXXXXXX....................        ",
"XXXXXXXXXXXXXXXXXXXXXXXX        XXXX....................        ",
"XXXXXXXXXXXXXXXXXXXXXXXX        XXXX....................        ",
"XXXXXXXXXXXXXXXXXXXXXXXX        XXXX....................        ",
"XXXXXXXXXXXXXXXXXXXXXXXX        XXXX....................        ",
"XXXXXXXXXXXXXXXXXXXXXXXX....    XXXX................            ",
"XXXXXXXXXXXXXXXXXXXXXXXX....    XXXX................            ",
"XXXXXXXXXXXXXXXXXXXXXXXX....    XXXX................            ",
"XXXXXXXXXXXXXXXXXXXXXXXX....    XXXX................            ",
"XXXXXXXXXXXXXXXXXXXX........    XXXX....................        ",
"XXXXXXXXXXXXXXXXXXXX........    XXXX....................        ",
"XXXXXXXXXXXXXXXXXXXX........    XXXX....................        ",
"XXXXXXXXXXXXXXXXXXXX........    XXXX....................        ",
"XXXXXXXXXXXXXXXXXXXX........        ....................    XXXX",
"XXXXXXXXXXXXXXXXXXXX........        ....................    XXXX",
"XXXXXXXXXXXXXXXXXXXX........        ....................    XXXX",
"XXXXXXXXXXXXXXXXXXXX........        ....................    XXXX",
"XXXXXXXXXXXX        ........    ............................XXXX",
"XXXXXXXXXXXX        ........    ............................XXXX",
"XXXXXXXXXXXX        ........    ............................XXXX",
"XXXXXXXXXXXX        ........    ............................XXXX",
"XXXXXXXX........    ........    ............................XXXX",
"XXXXXXXX........    ........    ............................XXXX",
"XXXXXXXX........    ........    ............................XXXX",
"XXXXXXXX........    ........    ............................XXXX",
"XXXX........................    ........................    XXXX",
"XXXX........................    ........................    XXXX",
"XXXX........................    ........................    XXXX",
"XXXX........................    ........................    XXXX",
"XXXX............    ........    XXXX....................        ",
"XXXX............    ........    XXXX....................        ",
"XXXX............    ........    XXXX....................        ",
"XXXX............    ........    XXXX....................        ",
"XXXX............    ....            ....................        ",
"XXXX............    ....            ....................        ",
"XXXX............    ....            ....................        ",
"XXXX............    ....            ....................        ",
"XXXX............    ....        ........................        ",
"XXXX............    ....        ........................        ",
"XXXX............    ....        ........................        ",
"XXXX............    ....        ........................        ",
"........................            ................        XXXX",
"........................            ................        XXXX",
"........................            ................        XXXX",
"........................            ................        XXXX",
"........................            ....        ........    XXXX",
"........................            ....        ........    XXXX",
"........................            ....        ........    XXXX",
"........................            ....        ........    XXXX"
};
