/* XPM */
static char *result[] = {
/* columns rows colors chars-per-pixel */
"64 64 5 1 ",
"  c black",
". c #902A00",
"X c #A83100",
"o c #C03800",
"O c #FFC07A",
/* pixels */
"oooooooooooooooooooooooo            OOOOoooooooo            OOOO",
"oooooooooooooooooooooooo            OOOOoooooooo            OOOO",
"oooooooooooooooooooooooo            OOOOoooooooo            OOOO",
"oooooooooooooooooooooooo            OOOOoooooooo            OOOO",
"oooooooooooooooooooooooooooo        OOOOoooooooooooo        OOOO",
"oooooooooooooooooooooooooooo        OOOOoooooooooooo        OOOO",
"oooooooooooooooooooooooooooo        OOOOoooooooooooo        OOOO",
"oooooooooooooooooooooooooooo        OOOOoooooooooooo        OOOO",
"oooo        ....oooooooooooo        OOOOoooooooooooo        OOOO",
"oooo        ....oooooooooooo        OOOOoooooooooooo        OOOO",
"oooo        ....oooooooooooo        OOOOoooooooooooo        OOOO",
"oooo        ....oooooooooooo        OOOOoooooooooooo        OOOO",
"OOOOooooXXXX    oooooooooooo        OOOOoooooooooooo    OOOOOOOO",
"OOOOooooXXXX    oooooooooooo        OOOOoooooooooooo    OOOOOOOO",
"OOOOooooXXXX    oooooooooooo        OOOOoooooooooooo    OOOOOOOO",
"OOOOooooXXXX    oooooooooooo        OOOOoooooooooooo    OOOOOOOO",
"oooooooooooo    oooooooooooo        OOOOoooooooooooo    OOOOOOOO",
"oooooooooooo    oooooooooooo        OOOOoooooooooooo    OOOOOOOO",
"oooooooooooo    oooooooooooo        OOOOoooooooooooo    OOOOOOOO",
"oooooooooooo    oooooooooooo        OOOOoooooooooooo    OOOOOOOO",
"oooooooooooo    oooooooooooo        OOOOoooo        OOOOOOOOOOOO",
"oooooooooooo    oooooooooooo        OOOOoooo        OOOOOOOOOOOO",
"oooooooooooo    oooooooooooo        OOOOoooo        OOOOOOOOOOOO",
"oooooooooooo    oooooooooooo        OOOOoooo        OOOOOOOOOOOO",
"oooooooooooo    oooooooooooo                OOOOOOOOOOOOOOOOOOOO",
"oooooooooooo    oooooooooooo                OOOOOOOOOOOOOOOOOOOO",
"oooooooooooo    oooooooooooo                OOOOOOOOOOOOOOOOOOOO",
"oooooooooooo    oooooooooooo                OOOOOOOOOOOOOOOOOOOO",
"oooooooooooo    oooooooooooo        OOOOOOOOOOOOOOOOOOOOOOOOOOOO",
"oooooooooooo    oooooooooooo        OOOOOOOOOOOOOOOOOOOOOOOOOOOO",
"oooooooooooo    oooooooooooo        OOOOOOOOOOOOOOOOOOOOOOOOOOOO",
"oooooooooooo    oooooooooooo        OOOOOOOOOOOOOOOOOOOOOOOOOOOO",
"oooooooooooo    oooooooo        OOOOOOOOOOOOOOOOOOOOOOOOOOOOOOOO",
"oooooooooooo    oooooooo        OOOOOOOOOOOOOOOOOOOOOOOOOOOOOOOO",
"oooooooooooo    oooooooo        OOOOOOOOOOOOOOOOOOOOOOOOOOOOOOOO",
"oooooooooooo    oooooooo        OOOOOOOOOOOOOOOOOOOOOOOOOOOOOOOO",
"oooooooooooo    oooooooo        OOOOOOOOOOOOOOOOOOOOOOOOOOOOOOOO",
"oooooooooooo    oooooooo        OOOOOOOOOOOOOOOOOOOOOOOOOOOOOOOO",
"oooooooooooo    oooooooo        OOOOOOOOOOOOOOOOOOOOOOOOOOOOOOOO",
"oooooooooooo    oooooooo        OOOOOOOOOOOOOOOOOOOOOOOOOOOOOOOO",
"OOOOoooooooo    oooooooo        OOOOOOOOOOOOOOOOOOOOOOOOOOOOOOOO",
"OOOOoooooooo    oooooooo        OOOOOOOOOOOOOOOOOOOOOOOOOOOOOOOO",
"OOOOoooooooo    oooooooo        OOOOOOOOOOOOOOOOOOOOOOOOOOOOOOOO",
"OOOOoooooooo    oooooooo        OOOOOOOOOOOOOOOOOOOOOOOOOOOOOOOO",
"OOOOoooooooo    oooooooo        OOOOOOOOOOOOOOOOOOOOOOOOOOOOOOOO",
"OOOOoooooooo    oooooooo        OOOOOOOOOOOOOOOOOOOOOOOOOOOOOOOO",
"OOOOoooooooo    oooooooo        OOOOOOOOOOOOOOOOOOOOOOOOOOOOOOOO",
"OOOOoooooooo    oooooooo        OOOOOOOOOOOOOOOOOOOOOOOOOOOOOOOO",
"OOOOoooooooo    oooo        OOOOOOOOOOOOOOOOOOOOOOOOOOOOOOOOOOOO",
"OOOOoooooooo    oooo        OOOOOOOOOOOOOOOOOOOOOOOOOOOOOOOOOOOO",
"OOOOoooooooo    oooo        OOOOOOOOOOOOOOOOOOOOOOOOOOOOOOOOOOOO",
"OOOOoooooooo    oooo        OOOOOOOOOOOOOOOOOOOOOOOOOOOOOOOOOOOO",
"OOOOoooo                OOOOOOOOOOOOOOOOOOOOOOOOOOOOOOOOOOOOOOOO",
"OOOOoooo                OOOOOOOOOOOOOOOOOOOOOOOOOOOOOOOOOOOOOOOO",
"OOOOoooo                OOOOOOOOOOOOOOOOOOOOOOOOOOOOOOOOOOOOOOOO",
"OOOOoooo                OOOOOOOOOOOOOOOOOOOOOOOOOOOOOOOOOOOOOOOO",
"    OOOOOOOOOOOOOOOOOOOOOOOOOOOOOOOOOOOOOOOOOOOOOOOOOOOOOOOOOOOO",
"    OOOOOOOOOOOOOOOOOOOOOOOOOOOOOOOOOOOOOOOOOOOOOOOOOOOOOOOOOOOO",
"    OOOOOOOOOOOOOOOOOOOOOOOOOOOOOOOOOOOOOOOOOOOOOOOOOOOOOOOOOOOO",
"    OOOOOOOOOOOOOOOOOOOOOOOOOOOOOOOOOOOOOOOOOOOOOOOOOOOOOOOOOOOO",
"OOOOOOOOOOOOOOOOOOOOOOOOOOOOOOOOOOOOOOOOOOOOOOOOOOOOOOOOOOOOOOOO",
"OOOOOOOOOOOOOOOOOOOOOOOOOOOOOOOOOOOOOOOOOOOOOOOOOOOOOOOOOOOOOOOO",
"OOOOOOOOOOOOOOOOOOOOOOOOOOOOOOOOOOOOOOOOOOOOOOOOOOOOOOOOOOOOOOOO",
"OOOOOOOOOOOOOOOOOOOOOOOOOOOOOOOOOOOOOOOOOOOOOOOOOOOOOOOOOOOOOOOO"
};
