/* XPM */
static char *result[] = {
/* columns rows colors chars-per-pixel */
"64 64 5 1 ",
"  c black",
". c #C03800",
"X c #CB945C",
"o c #CF9C63",
"O c #FFC07A",
/* pixels */
"................OOOO............            OOOO........        ",
"................OOOO............            OOOO........        ",
"................OOOO............            OOOO........        ",
"................OOOO............            OOOO........        ",
"................OOOO....................    OOOO............    ",
"................OOOO....................    OOOO............    ",
"................OOOO....................    OOOO............    ",
"................OOOO....................    OOOO............    ",
"............    OOOO....................    OOOO............    ",
"............    OOOO....................    OOOO............    ",
"............    OOOO....................    OOOO............    ",
"............    OOOO....................    OOOO............    ",
"............    OOOO....................    OOOO................",
"............    OOOO....................    OOOO................",
"............    OOOO....................    OOOO................",
"............    OOOO....................    OOOO................",
"............    OOOO....................    OOOO................",
"............    OOOO....................    OOOO................",
"............    OOOO....................    OOOO................",
"............    OOOO....................    OOOO................",
"............    OOOO....................    OOOO................",
"............    OOOO....................    OOOO................",
"............    OOOO....................    OOOO................",
"............    OOOO....................    OOOO................",
"    ....        OOOO....................        OOOO............",
"    ....        OOOO....................        OOOO............",
"    ....        OOOO....................        OOOO............",
"    ....        OOOO....................        OOOO............",
"OOOO            OOOO....................            OOOO........",
"OOOO            OOOO....................            OOOO........",
"OOOO            OOOO....................            OOOO........",
"OOOO            OOOO....................            OOOO........",
"OOOOOOOOOOOO        ....................            OOOO........",
"OOOOOOOOOOOO        ....................            OOOO........",
"OOOOOOOOOOOO        ....................            OOOO........",
"OOOOOOOOOOOO        ....................            OOOO........",
"OOOOOOOOOOOOOOOO    ....    ........                OOOO........",
"OOOOOOOOOOOOOOOO    ....    ........                OOOO........",
"OOOOOOOOOOOOOOOO    ....    ........                OOOO........",
"OOOOOOOOOOOOOOOO    ....    ........                OOOO........",
"OOOOOOOOOOOOOOOOOOOO                                OOOO........",
"OOOOOOOOOOOOOOOOOOOO                                OOOO........",
"OOOOOOOOOOOOOOOOOOOO                                OOOO........",
"OOOOOOOOOOOOOOOOOOOO                                OOOO........",
"OOOOOOOOOOOOOOOOOOOOOOOOOOOOOOOO                    OOOO........",
"OOOOOOOOOOOOOOOOOOOOOOOOOOOOOOOO                    OOOO........",
"OOOOOOOOOOOOOOOOOOOOOOOOOOOOOOOO                    OOOO........",
"OOOOOOOOOOOOOOOOOOOOOOOOOOOOOOOO                    OOOO........",
"OOOOOOOOOOOOOOOOOOOOOOOOOOOOOOOOOOOOOOOOOOOOOOOO    oooo........",
"OOOOOOOOOOOOOOOOOOOOOOOOOOOOOOOOOOOOOOOOOOOOOOOO    oooo........",
"OOOOOOOOOOOOOOOOOOOOOOOOOOOOOOOOOOOOOOOOOOOOOOOO    oooo........",
"OOOOOOOOOOOOOOOOOOOOOOOOOOOOOOOOOOOOOOOOOOOOOOOO    oooo........",
"OOOOOOOOOOOOOOOOOOOOOOOOOOOOOOOOOOOOOOOOOOOOOOOOXXXX    ........",
"OOOOOOOOOOOOOOOOOOOOOOOOOOOOOOOOOOOOOOOOOOOOOOOOXXXX    ........",
"OOOOOOOOOOOOOOOOOOOOOOOOOOOOOOOOOOOOOOOOOOOOOOOOXXXX    ........",
"OOOOOOOOOOOOOOOOOOOOOOOOOOOOOOOOOOOOOOOOOOOOOOOOXXXX    ........",
"OOOOOOOOOOOOOOOOOOOOOOOOOOOOOOOOOOOOOOOOOOOOOOOOOOOO    ........",
"OOOOOOOOOOOOOOOOOOOOOOOOOOOOOOOOOOOOOOOOOOOOOOOOOOOO    ........",
"OOOOOOOOOOOOOOOOOOOOOOOOOOOOOOOOOOOOOOOOOOOOOOOOOOOO    ........",
"OOOOOOOOOOOOOOOOOOOOOOOOOOOOOOOOOOOOOOOOOOOOOOOOOOOO    ........",
"OOOOOOOOOOOOOOOOOOOOOOOOOOOOOOOOOOOOOOOOOOOOOOOOOOOOOOOO        ",
"OOOOOOOOOOOOOOOOOOOOOOOOOOOOOOOOOOOOOOOOOOOOOOOOOOOOOOOO        ",
"OOOOOOOOOOOOOOOOOOOOOOOOOOOOOOOOOOOOOOOOOOOOOOOOOOOOOOOO        ",
"OOOOOOOOOOOOOOOOOOOOOOOOOOOOOOOOOOOOOOOOOOOOOOOOOOOOOOOO        "
};
