/* XPM */
static char *result[] = {
/* columns rows colors chars-per-pixel */
"64 64 7 1 ",
"  c black",
". c #902A00",
"X c #9C2E00",
"o c #A83100",
"O c #AC3A08",
"+ c #C03800",
"@ c #FFC07A",
/* pixels */
"@@@@@@@@@@@@@@@@@@@@@@@@@@@@@@@@@@@@@@@@@@@@@@@@@@@@@@@@@@@@@@@@",
"@@@@@@@@@@@@@@@@@@@@@@@@@@@@@@@@@@@@@@@@@@@@@@@@@@@@@@@@@@@@@@@@",
"@@@@@@@@@@@@@@@@@@@@@@@@@@@@@@@@@@@@@@@@@@@@@@@@@@@@@@@@@@@@@@@@",
"@@@@@@@@@@@@@@@@@@@@@@@@@@@@@@@@@@@@@@@@@@@@@@@@@@@@@@@@@@@@@@@@",
"@@@@@@@@@@@@++++    @@@@@@@@@@@@@@@@@@@@@@@@@@@@@@@@@@@@@@@@@@@@",
"@@@@@@@@@@@@++++    @@@@@@@@@@@@@@@@@@@@@@@@@@@@@@@@@@@@@@@@@@@@",
"@@@@@@@@@@@@++++    @@@@@@@@@@@@@@@@@@@@@@@@@@@@@@@@@@@@@@@@@@@@",
"@@@@@@@@@@@@++++    @@@@@@@@@@@@@@@@@@@@@@@@@@@@@@@@@@@@@@@@@@@@",
"@@@@@@@@++++++++++++    @@@@@@@@@@@@@@@@@@@@@@@@@@@@@@@@@@@@@@@@",
"@@@@@@@@++++++++++++    @@@@@@@@@@@@@@@@@@@@@@@@@@@@@@@@@@@@@@@@",
"@@@@@@@@++++++++++++    @@@@@@@@@@@@@@@@@@@@@@@@@@@@@@@@@@@@@@@@",
"@@@@@@@@++++++++++++    @@@@@@@@@@@@@@@@@@@@@@@@@@@@@@@@@@@@@@@@",
"@@@@++++++++++++++++++++    @@@@@@@@@@@@@@@@@@@@@@@@@@@@@@@@@@@@",
"@@@@++++++++++++++++++++    @@@@@@@@@@@@@@@@@@@@@@@@@@@@@@@@@@@@",
"@@@@++++++++++++++++++++    @@@@@@@@@@@@@@@@@@@@@@@@@@@@@@@@@@@@",
"@@@@++++++++++++++++++++    @@@@@@@@@@@@@@@@@@@@@@@@@@@@@@@@@@@@",
"    ++++++++++++++++++++    @@@@@@@@@@@@@@@@@@@@@@@@@@@@@@@@@@@@",
"    ++++++++++++++++++++    @@@@@@@@@@@@@@@@@@@@@@@@@@@@@@@@@@@@",
"    ++++++++++++++++++++    @@@@@@@@@@@@@@@@@@@@@@@@@@@@@@@@@@@@",
"    ++++++++++++++++++++    @@@@@@@@@@@@@@@@@@@@@@@@@@@@@@@@@@@@",
"@@@@++++++++++++++++++++++++    @@@@@@@@@@@@@@@@@@@@@@@@@@@@@@@@",
"@@@@++++++++++++++++++++++++    @@@@@@@@@@@@@@@@@@@@@@@@@@@@@@@@",
"@@@@++++++++++++++++++++++++    @@@@@@@@@@@@@@@@@@@@@@@@@@@@@@@@",
"@@@@++++++++++++++++++++++++    @@@@@@@@@@@@@@@@@@@@@@@@@@@@@@@@",
"@@@@++++++++++++++++++++++++    ++++@@@@@@@@@@@@@@@@@@@@@@@@@@@@",
"@@@@++++++++++++++++++++++++    ++++@@@@@@@@@@@@@@@@@@@@@@@@@@@@",
"@@@@++++++++++++++++++++++++    ++++@@@@@@@@@@@@@@@@@@@@@@@@@@@@",
"@@@@++++++++++++++++++++++++    ++++@@@@@@@@@@@@@@@@@@@@@@@@@@@@",
"@@@@++++++++++++++++++++        ++++XXXX            @@@@@@@@@@@@",
"@@@@++++++++++++++++++++        ++++XXXX            @@@@@@@@@@@@",
"@@@@++++++++++++++++++++        ++++XXXX            @@@@@@@@@@@@",
"@@@@++++++++++++++++++++        ++++XXXX            @@@@@@@@@@@@",
"++++++++++++++++++++++++    @@@@++++    OOOO++++++++    @@@@@@@@",
"++++++++++++++++++++++++    @@@@++++    OOOO++++++++    @@@@@@@@",
"++++++++++++++++++++++++    @@@@++++    OOOO++++++++    @@@@@@@@",
"++++++++++++++++++++++++    @@@@++++    OOOO++++++++    @@@@@@@@",
"++++++++++++++++++++        @@@@++++++++++++++++++++    @@@@@@@@",
"++++++++++++++++++++        @@@@++++++++++++++++++++    @@@@@@@@",
"++++++++++++++++++++        @@@@++++++++++++++++++++    @@@@@@@@",
"++++++++++++++++++++        @@@@++++++++++++++++++++    @@@@@@@@",
"++++++++++++++++++++        @@@@++++++++++++++++++++++++    @@@@",
"++++++++++++++++++++        @@@@++++++++++++++++++++++++    @@@@",
"++++++++++++++++++++        @@@@++++++++++++++++++++++++    @@@@",
"++++++++++++++++++++        @@@@++++++++++++++++++++++++    @@@@",
"@@@@++++++++++++++++++++        @@@@++++++++++++++++++++    @@@@",
"@@@@++++++++++++++++++++        @@@@++++++++++++++++++++    @@@@",
"@@@@++++++++++++++++++++        @@@@++++++++++++++++++++    @@@@",
"@@@@++++++++++++++++++++        @@@@++++++++++++++++++++    @@@@",
"    ++++++++++++++++++++++++    @@@@++++++++++++++++++++    @@@@",
"    ++++++++++++++++++++++++    @@@@++++++++++++++++++++    @@@@",
"    ++++++++++++++++++++++++    @@@@++++++++++++++++++++    @@@@",
"    ++++++++++++++++++++++++    @@@@++++++++++++++++++++    @@@@",
"@@@@@@@@        ....++++++++    @@@@++++++++++++++++        @@@@",
"@@@@@@@@        ....++++++++    @@@@++++++++++++++++        @@@@",
"@@@@@@@@        ....++++++++    @@@@++++++++++++++++        @@@@",
"@@@@@@@@        ....++++++++    @@@@++++++++++++++++        @@@@",
"++++++++++++oooo    ++++        @@@@        ++++++++        @@@@",
"++++++++++++oooo    ++++        @@@@        ++++++++        @@@@",
"++++++++++++oooo    ++++        @@@@        ++++++++        @@@@",
"++++++++++++oooo    ++++        @@@@        ++++++++        @@@@",
"++++++++++++        ++++++++    @@@@            ++++    @@@@@@@@",
"++++++++++++        ++++++++    @@@@            ++++    @@@@@@@@",
"++++++++++++        ++++++++    @@@@            ++++    @@@@@@@@",
"++++++++++++        ++++++++    @@@@            ++++    @@@@@@@@"
};
