/* XPM */
static char *result[] = {
/* columns rows colors chars-per-pixel */
"64 64 6 1 ",
"  c black",
". c #007500",
"X c #007F00",
"o c #009C00",
"O c #BFB75C",
"+ c #FFC07A",
/* pixels */
"oooooooooooo    ++++        ++++oooooooo        ++++    oooooooo",
"oooooooooooo    ++++        ++++oooooooo        ++++    oooooooo",
"oooooooooooo    ++++        ++++oooooooo        ++++    oooooooo",
"oooooooooooo    ++++        ++++oooooooo        ++++    oooooooo",
"oooooooooooooooo        ++++oooooooooooooooooooo            ++++",
"oooooooooooooooo        ++++oooooooooooooooooooo            ++++",
"oooooooooooooooo        ++++oooooooooooooooooooo            ++++",
"oooooooooooooooo        ++++oooooooooooooooooooo            ++++",
"oooooooooooooooo        ++++oooooooooooooooooooo        oooo    ",
"oooooooooooooooo        ++++oooooooooooooooooooo        oooo    ",
"oooooooooooooooo        ++++oooooooooooooooooooo        oooo    ",
"oooooooooooooooo        ++++oooooooooooooooooooo        oooo    ",
"++++oooooooooooo        ++++oooooooooooooooooooooooo    oooo    ",
"++++oooooooooooo        ++++oooooooooooooooooooooooo    oooo    ",
"++++oooooooooooo        ++++oooooooooooooooooooooooo    oooo    ",
"++++oooooooooooo        ++++oooooooooooooooooooooooo    oooo    ",
"++++oooooooooooo    ++++oooooooooooooooooooooooooooo    oooo    ",
"++++oooooooooooo    ++++oooooooooooooooooooooooooooo    oooo    ",
"++++oooooooooooo    ++++oooooooooooooooooooooooooooo    oooo    ",
"++++oooooooooooo    ++++oooooooooooooooooooooooooooo    oooo    ",
"oooooooooooooooo    ++++oooooooooooooooooooooooooooooooooooo    ",
"oooooooooooooooo    ++++oooooooooooooooooooooooooooooooooooo    ",
"oooooooooooooooo    ++++oooooooooooooooooooooooooooooooooooo    ",
"oooooooooooooooo    ++++oooooooooooooooooooooooooooooooooooo    ",
"oooooooooooooooo    ++++ooooooooooooooooooooOOOO++++        ++++",
"oooooooooooooooo    ++++ooooooooooooooooooooOOOO++++        ++++",
"oooooooooooooooo    ++++ooooooooooooooooooooOOOO++++        ++++",
"oooooooooooooooo    ++++ooooooooooooooooooooOOOO++++        ++++",
"oooooooooooooooo    ++++ooooooooooooooooOOOOoooooooooooo    ++++",
"oooooooooooooooo    ++++ooooooooooooooooOOOOoooooooooooo    ++++",
"oooooooooooooooo    ++++ooooooooooooooooOOOOoooooooooooo    ++++",
"oooooooooooooooo    ++++ooooooooooooooooOOOOoooooooooooo    ++++",
"oooooooooooo        ++++oooooooooooooooo++++oooooooooooooooo    ",
"oooooooooooo        ++++oooooooooooooooo++++oooooooooooooooo    ",
"oooooooooooo        ++++oooooooooooooooo++++oooooooooooooooo    ",
"oooooooooooo        ++++oooooooooooooooo++++oooooooooooooooo    ",
"oooooooooooo        ++++oooooooooooooooo++++oooooooooooooooo    ",
"oooooooooooo        ++++oooooooooooooooo++++oooooooooooooooo    ",
"oooooooooooo        ++++oooooooooooooooo++++oooooooooooooooo    ",
"oooooooooooo        ++++oooooooooooooooo++++oooooooooooooooo    ",
"++++oooo            ++++    oooooooo    ++++oooooooooooo        ",
"++++oooo            ++++    oooooooo    ++++oooooooooooo        ",
"++++oooo            ++++    oooooooo    ++++oooooooooooo        ",
"++++oooo            ++++    oooooooo    ++++oooooooooooo        ",
"++++oooo    ++++++++++++        ....    ++++oooooooooooo    ++++",
"++++oooo    ++++++++++++        ....    ++++oooooooooooo    ++++",
"++++oooo    ++++++++++++        ....    ++++oooooooooooo    ++++",
"++++oooo    ++++++++++++        ....    ++++oooooooooooo    ++++",
"oooo    ++++ooooooooooooooooXXXX        ++++oooooooooooo    ++++",
"oooo    ++++ooooooooooooooooXXXX        ++++oooooooooooo    ++++",
"oooo    ++++ooooooooooooooooXXXX        ++++oooooooooooo    ++++",
"oooo    ++++ooooooooooooooooXXXX        ++++oooooooooooo    ++++",
"oooo    ++++oooooooooooooooo            ++++oooooooooooo    ++++",
"oooo    ++++oooooooooooooooo            ++++oooooooooooo    ++++",
"oooo    ++++oooooooooooooooo            ++++oooooooooooo    ++++",
"oooo    ++++oooooooooooooooo            ++++oooooooooooo    ++++",
"oooo++++oooooooooooooooooooooooo            oooooooo            ",
"oooo++++oooooooooooooooooooooooo            oooooooo            ",
"oooo++++oooooooooooooooooooooooo            oooooooo            ",
"oooo++++oooooooooooooooooooooooo            oooooooo            ",
"    ++++oooo++++oooooooo++++    ++++        ++++++++        ++++",
"    ++++oooo++++oooooooo++++    ++++        ++++++++        ++++",
"    ++++oooo++++oooooooo++++    ++++        ++++++++        ++++",
"    ++++oooo++++oooooooo++++    ++++        ++++++++        ++++"
};
