/* XPM */
static char *result[] = {
/* columns rows colors chars-per-pixel */
"64 64 3 1 ",
"  c black",
". c #009C00",
"X c #FFC07A",
/* pixels */
"............    XXXX        XXXX........        XXXX    ........",
"............    XXXX        XXXX........        XXXX    ........",
"............    XXXX        XXXX........        XXXX    ........",
"............    XXXX        XXXX........        XXXX    ........",
"................        XXXX....................            XXXX",
"................        XXXX....................            XXXX",
"................        XXXX....................            XXXX",
"................        XXXX....................            XXXX",
"................        XXXX....................        ....    ",
"................        XXXX....................        ....    ",
"................        XXXX....................        ....    ",
"................        XXXX....................        ....    ",
"XXXX............        XXXX........................    ....    ",
"XXXX............        XXXX........................    ....    ",
"XXXX............        XXXX........................    ....    ",
"XXXX............        XXXX........................    ......  ",
"XXXX............    XXXX............................    ......  ",
"XXXX............    XXXX............................    ......  ",
"XXXX............    XXXX............................    ......  ",
"XXXX............    XXXX............................    ......  ",
"................    XXXX......................................  ",
"................XXX XXXX......................................  ",
"................XXXXXXXX........................................",
"................XXXXXXXX........................................",
"                                                                ",
"                                                                ",
"                                                                ",
"                                                                ",
"                                                                ",
"                                                                ",
"                                                                ",
"                                                                ",
"                                                                ",
"                                                                ",
"                                                                ",
"                                                                ",
"                                                                ",
"                                                                ",
"                                                                ",
"                                                                ",
"                                                                ",
"                                                                ",
"                                                                ",
"                                                                ",
"                                                                ",
"                                                                ",
"                                                                ",
"                                                                ",
"                                                                ",
"                                                                ",
"                                                                ",
"                                                                ",
"                                                                ",
"                                                                ",
"                                                                ",
"                                                                ",
"                                                                ",
"                                                                ",
"                                                                ",
"                                                                ",
"                                                                ",
"                                                                ",
"                                                                ",
"                                                                "
};
