/* XPM */
static char *result[] = {
/* columns rows colors chars-per-pixel */
"74 56 47 1 ",
"  c gray8",
". c gray11",
"X c #2C1800",
"o c #342000",
"O c #282828",
"+ c #343434",
"@ c #482C04",
"# c #503008",
"$ c #58380C",
"% c #443434",
"& c #684000",
"* c #785004",
"= c #644014",
"- c #6C4C18",
"; c #78581C",
": c #00044C",
"> c #001474",
", c gray25",
"< c #4C4C4C",
"1 c #544440",
"2 c #585858",
"3 c #685450",
"4 c #646464",
"5 c #6C6C6C",
"6 c #786460",
"7 c gray47",
"8 c #886408",
"9 c #98780C",
"0 c #806024",
"q c #8C7870",
"w c #A88C10",
"e c #BCA414",
"r c #A08438",
"t c #D0C01C",
"y c #F4E020",
"u c #B49054",
"i c #0428A0",
"p c #0C48CC",
"a c #848484",
"s c #9C8880",
"d c #909090",
"f c #B09C90",
"g c gray66",
"h c #C0B0A4",
"j c #D4C4B4",
"k c #C0C0C0",
"l c None",
/* pixels */
"llllllllllllllllllllllllllllllllllllllllllllllllllllllllllllllllllllllllll",
"llllllllllllllllllllllllllllllllllllllllllllllllllllllllllllllllllllllllll",
"llllllllllllllllllllllllllllllllllllllllllllllllllllllllllllllllllllllllll",
"llllllllllllllllllllllllllllllllllllllllllllllllllllllllllllllllllllllllll",
"llllllllllllllllllllllllllllllllllllllllllllllllllllllllllllllllllllllllll",
"llllllllllllllllllllllllllllllllllllllllllllllllllllllllllllllllllllllllll",
"llllllllllllllllllllllllllllllllllllllllllllllllllllllllllllllllllllllllll",
"llllllllllllllllllllllllllllllllllllllllllllllllllllllllllllllllllllllllll",
"llllllllllllllllllllllllllllllllllllllllllllllllllllllllllllllllllllllllll",
"llllllllllllllllllllllllllllllllllllllllllllllllllllllllllllllllllllllllll",
"llllllllllllllllllllllllllllllllllllllllllllllllllllllllllllllllllllllllll",
"llllllllllllllllllllllllllllllllllllllllllllllllllllllllllllllllllllllllll",
"lllllllllllllllllllllllllllllllllloo##@oolllllllllllllllllllllllllllllllll",
"lllllllllllllllllllllllllllllllll.#=-0;-$ollllllllllllllllllllllllllllllll",
"llllllllllllllllllllllllllllllllX@$0rttr0$llllllllllllllllllllllllllllllll",
"llllllllllllllllllllllllllllll:>iii>:++++-#lllllllllllllllllllllllllllllll",
"llllllllllllllllllllllllllllll:ippiir0,<%+Olllllllllllllllllllllllllllllll",
"lllllllllllllllllllllllllllll:>pii>>t0166,+lllllllllllllllllllllllllllllll",
"lllllllllllllllllllllllllllll:pi,,%t0uqqq6%+llllllllllllllllllllllllllllll",
"lllllllllllllllllllllllllllll>i>+<41qhjfq6%Ollllllllllllllllllllllllllllll",
"llllllllllllllllllllllllllll:i> ,621qjkhq6,+llllllllllllllllllllllllllllll",
"llllllllllllllllllllllllllll:i:.,3+,4ffqq6%+llllllllllllllllllllllllllllll",
"llllllllllllllllllllllllllll>>lO,4O<<4qq6<,O<4dggkkgd4,lllllllllllllllllll",
"llllllllllllllllllllllllllll>:l,2a2O+,,<<,+O4dddddddddda7,+.llllllllllllll",
"llllllllllllllllllllllllllllill+4aaa22++OO..llllllllllllllllllllllllllllll",
"lllllllllllllllllllllllllllllll+4aaffaaa72% llllllllllllllllllllllllllllll",
"lllllllllllllllllllllllllllllll+22,:::,27772llllllllllllllllllllllllllllll",
"lllllllllllllllllllllllllllllll+,:::::::,275llllllllllllllllllllllllllllll",
"lllllllllllllllllllllllllllllll,::>iiii>:,25llllllllllllllllllllllllllllll",
"llllllllllllllllllllllllllllll=::>iippii>:,5llllllllllllllllllllllllllllll",
"llllllllllllllllllllllllllllll;:>>ippppi>>:+llllllllllllllllllllllllllllll",
"llllllllllllllllllllllllllllll=:>>ippppi>>*,llllllllllllllllllllllllllllll",
"llllllllllllllllllllllllllllll&;>>iippii>:wOllllllllllllllllllllllllllllll",
"llllllllllllllllllllllllllllll &;w*iii>*ww*lllllllllllllllllllllllllllllll",
"llllllllllllllllllllllllllllll   *weeyyw*<+lllllllllllllllllllllllllllllll",
"llllllllllllllllllllllllllllll   1322;O%,<,lllllllllllllllllllllllllllllll",
"lllllllllllllllllllllllllllll    O,1,+%-O,+lllllllllllllllllllllllllllllll",
"lllllllllllllllllllllllllllll   O+OO%--;=. lllllllllllllllllllllllllllllll",
"lllllllllllllllllllllllllllll   1%%;08w9-% lllllllllllllllllllllllllllllll",
"lllllllllllllllllllllllllllll  .<%=-9wyw-=.lllllllllllllllllllllllllllllll",
"lllllllllllllllllllllllllllll  O<11-;9w99-.lllllllllllllllllllllllllllllll",
"lllllllllllllllllllllllllllll  .1475189y8- lllllllllllllllllllllllllllllll",
"llllllllllllllllllllllllllllll  ,244-1-8w% lllllllllllllllllllllllllllllll",
"llllllllllllllllllllllllllllll  +,<,,+%=%  lllllllllllllllllllllllllllllll",
"lllllllllllllllllllllllllllllll +<,,,<2,   lllllllllllllllllllllllllllllll",
"lllllllllllllllllllllllllllllll  1463364, llllllllllllllllllllllllllllllll",
"lllllllllllllllllllllllllllllll  ,aja6aq+ llllllllllllllllllllllllllllllll",
"llllllllllllllllllllllllllllllll .3hhss2 lllllllllllllllllllllllllllllllll",
"lllllllllllllllllllllllllllllllll  O2s3 llllllllllllllllllllllllllllllllll",
"llllllllllllllllllllllllllllllllllllllllllllllllllllllllllllllllllllllllll",
"llllllllllllllllllllllllllllllllllllllllllllllllllllllllllllllllllllllllll",
"llllllllllllllllllllllllllllllllllllllllllllllllllllllllllllllllllllllllll",
"llllllllllllllllllllllllllllllllllllllllllllllllllllllllllllllllllllllllll",
"llllllllllllllllllllllllllllllllllllllllllllllllllllllllllllllllllllllllll",
"llllllllllllllllllllllllllllllllllllllllllllllllllllllllllllllllllllllllll",
"llllllllllllllllllllllllllllllllllllllllllllllllllllllllllllllllllllllllll"
};
