/* XPM */
static char *result[] = {
/* columns rows colors chars-per-pixel */
"74 56 43 1 ",
"  c gray8",
". c gray11",
"X c #241400",
"o c #342000",
"O c #282828",
"+ c #343434",
"@ c #482C04",
"# c #503008",
"$ c #58380C",
"% c #443434",
"& c #785004",
"* c #6C4C18",
"= c #78581C",
"- c #00044C",
"; c #001474",
": c gray25",
"> c #4C4C4C",
", c #544440",
"< c #585858",
"1 c #685450",
"2 c #646464",
"3 c #6C6C6C",
"4 c #786460",
"5 c gray47",
"6 c #886408",
"7 c #98780C",
"8 c #8C6C28",
"9 c #8C7870",
"0 c #A88C10",
"q c #BCA414",
"w c #A08438",
"e c #D0C01C",
"r c #F4E020",
"t c #0428A0",
"y c #0C48CC",
"u c #848484",
"i c #9C8880",
"p c gray61",
"a c #B09C90",
"s c gray66",
"d c #C0B0A4",
"f c #C0C0C0",
"g c None",
/* pixels */
"gggggggggggggggggggggggggggggggggggggggggggggggggggggggggggggggggggggggggg",
"gggggggggggggggggggggggggggggggggggggggggggggggggggggggggggggggggggggggggg",
"gggggggggggggggggggggggggggggggggggggggggggggggggggggggggggggggggggggggggg",
"gggggggggggggggggggggggggggggggggggggggggggggggggggggggggggggggggggggggggg",
"gggggggggggggggggggggggggggggggggggggggggggggggggggggggggggggggggggggggggg",
"gggggggggggggggggggggggggggggggggggggggggggggggggggggggggggggggggggggggggg",
"gggggggggggggggggggggggggggggggggggggggggggggggggggggggggggggggggggggggggg",
"gggggggggggggggggggggggggggggggggggggggggggggggggggggggggggggggggggggggggg",
"gggggggggggggggggggggggggggggggggggggggggggggggggggggggggggggggggggggggggg",
"gggggggggggggggggggggggggggggggggggggggggggggggggggggggggggggggggggggggggg",
"gggggggggggggggggggggggggggggggggggggggggggggggg2ugggggggggggggggggggggggg",
"gggggggggggggggggggggggggggggggggggggggggggggg:2uggggggggggggggggggggggggg",
"ggggggggggggggggggggggggggggggggggggggggggggg:fugggggggggggggggggggggggggg",
"ggggggggggggggggggggggggggggg X gggggggggggg:f2ggggggggggggggggggggggggggg",
"ggggggggggggggggggggggggggggX$$$#Xggggggggg:p2gggggggggggggggggggggggggggg",
"ggggggggggggggggggggggggggg.$6ww6@g.OOggg.:p2ggggggggggggggggggggggggggggg",
"ggggggggggggggggggggggggggX*we6+OO++22++.,p2gggggggggggggggggggggggggggggg",
"gggggggggggggggggggggggggg$wr6---+qwii2+%p2ggggggggggggggggggggggggggggggg",
"gggggggggggggggggggggggggO=e8;tyttyraai,p2gggggggggggggggggggggggggggggggg",
"ggggggggggggggggggggggggg.=w+tyt;-7qfdi%2ggggggggggggggggggggggggggggggggg",
"ggggggggggggggggggggggggg.*%-ytt-:,9ii4<Oggggggggggggggggggggggggggggggggg",
"ggggggggggggggggggggggggg *-;tt;-+>44,:O.ggggggggggggggggggggggggggggggggg",
"gggggggggggggggggggggggggg%-ttt;:>:+OOO::.gggggggggggggggggggggggggggggggg",
"gggggggggggggggggggggggggg7-ty;:<>,,,>:%+O.ggggggggggggggggggggggggggggggg",
"ggggggggggggggggggggggggggg6ty;><>>,ui%O--.ggggggggggggggggggggggggggggggg",
"gggggggggggggggggggggggggggg;t;><<>uda+-;;-.gggggggggggggggggggggggggggggg",
"gggggggggggggggggggggggggggggt-:><<4iu-;;;;-.ggggggggggggggggggggggggggggg",
"ggggggggggggggggggggggggggggg;-+>,>12;tttt;;-.gggggggggggggggggggggggggggg",
"ggggggggggggggggggggggggggggg;>O+>1,;ttyyyt;-$gggggggggggggggggggggggggggg",
"ggggggggggggggggggggggggggggg:>:.+1;;tyyyyt;-7gggggggggggggggggggggggggggg",
"ggggggggggggggggggggggggggggg+3<:O,;;ttyyyt;&qgggggggggggggggggggggggggggg",
"ggggggggggggggggggggggggggggg+:2>::-7;ttt-&rq$gggggggggggggggggggggggggggg",
"gggggggggggggggggggggggggggggO++>>:--;-&qrq7%%.ggggggggggggggggggggggggggg",
"ggggggggggggggggggggggggggggg.>2:2517qq77%%,>,$ogggggggggggggggggggggggggg",
"gggggggggggggggggggggggggggg  55,:254<+O%,,,:+$6gggggggggggggggggggggggggg",
"ggggggggggggggggggggggggggg  O23::O>>+++O,,>O+60gggggggggggggggggggggggggg",
"ggggggggggggggggggggggggggg  O:::+OO++++O+OO+6e7@ggggggggggggggggggggggggg",
"ggggggggggggggggggggggggggg  .>>:O :.O%+O:,$&06&#ggggggggggggggggggggggggg",
"ggggggggggggggggggggggggggg    .  +OOOOO+>ggX.##gggggggggggggggggggggggggg",
"ggggggggggggggggggggggggggg       :++,>+::gggggggggggggggggggggggggggggggg",
"gggggggggggggggggggggggggggg      :>55>,>.gggggggggggggggggggggggggggggggg",
"ggggggggggggggggggggggggggggggg   +,ss5>>.gggggggggggggggggggggggggggggggg",
"gggggggggggggggggggggggggggggggg  .>5s5>>>.ggggggggggggggggggggggggggggggg",
"ggggggggggggggggggggggggggggggggg  :<2<:><+ gggggggggggggggggggggggggggggg",
"ggggggggggggggggggggggggggggggggg  ++:::>1: gggggggggggggggggggggggggggggg",
"gggggggggggggggggggggggggggggggggg >>22559> gggggggggggggggggggggggggggggg",
"gggggggggggggggggggggggggggggggggg O,><422. gggggggggggggggggggggggggggggg",
"ggggggggggggggggggggggggggggggggggg .O+:O  ggggggggggggggggggggggggggggggg",
"gggggggggggggggggggggggggggggggggggg     ggggggggggggggggggggggggggggggggg",
"gggggggggggggggggggggggggggggggggggggggggggggggggggggggggggggggggggggggggg",
"gggggggggggggggggggggggggggggggggggggggggggggggggggggggggggggggggggggggggg",
"gggggggggggggggggggggggggggggggggggggggggggggggggggggggggggggggggggggggggg",
"gggggggggggggggggggggggggggggggggggggggggggggggggggggggggggggggggggggggggg",
"gggggggggggggggggggggggggggggggggggggggggggggggggggggggggggggggggggggggggg",
"gggggggggggggggggggggggggggggggggggggggggggggggggggggggggggggggggggggggggg",
"gggggggggggggggggggggggggggggggggggggggggggggggggggggggggggggggggggggggggg"
};
