/* XPM */
static char *result[] = {
/* columns rows colors chars-per-pixel */
"74 56 45 1 ",
"  c gray8",
". c gray11",
"X c #241400",
"o c #342000",
"O c #282828",
"+ c #343434",
"@ c #482C04",
"# c #503008",
"$ c #58380C",
"% c #443434",
"& c #684000",
"* c #785004",
"= c #644014",
"- c #6C4C18",
"; c #78581C",
": c #00044C",
"> c #001474",
", c gray25",
"< c #4C4C4C",
"1 c #544440",
"2 c #585858",
"3 c #685450",
"4 c #646464",
"5 c #6C6C6C",
"6 c #786460",
"7 c gray47",
"8 c #886408",
"9 c #98780C",
"0 c #806024",
"q c #8C7870",
"w c #A88C10",
"e c #BCA414",
"r c #A08438",
"t c #D0C01C",
"y c #F4E020",
"u c #0428A0",
"i c #0C48CC",
"p c #848484",
"a c #9C8880",
"s c gray61",
"d c #B09C90",
"f c #C0B0A4",
"g c #D4C4B4",
"h c #C0C0C0",
"j c None",
/* pixels */
"jjjjjjjjjjjjjjjjjjjjjjjjjjjjjjjjjjjjjjjjjjjjjjjjjjjjjjjjjjjjjjjjjjjjjjjjjj",
"jjjjjjjjjjjjjjjjjjjjjjjjjjjjjjjjjjjjjjjjjjjjjjjjjjjjjjjjjjjjjjjjjjjjjjjjjj",
"jjjjjjjjjjjjjjjjjjjjjjjjjjjjjjjjjjjjjjjjjjjjjjjjjjjjjjjjjjjjjjjjjjjjjjjjjj",
"jjjjjjjjjjjjjjjjjjjjjjjjjjjjjjjjjjjjjjjjjjjjjjjjjjjjjjjjjjjjjjjjjjjjjjjjjj",
"jjjjjjjjjjjjjjjjjjjjjjjjjjjjjjjjjjjjjjjjjjjjjjjjjjjjjjjjjjjjjjjjjjjjjjjjjj",
"jjjjjjjjjjjjjjjjjjjjjjjjjjjjjjjjjjjjjjjjjjjjjjjjjjjjjjjjjjjjjjjjjjjjjjjjjj",
"jjjjjjjjjjjjjjjjjjjjjjjjjjjjjjjjjjjjjjjjjjjjjjjjjjjjjjjjjjjjjjjjjjjjjjjjjj",
"jjjjjjjjjjjjjjjjjjjjjjjjjjjjjjjjjjjjjjjjjjjjjjjjjjjjjjjjjjjjjjjjjjjjjjjjjj",
"jjjjjjjjjjjjjjjjjjjjjjjjjjjjjjjjjjjjjjjjjjjjjjjjjjjjjjjjjjjjjjjjjjjjjjjjjj",
"jjjjjjjjjjjjjjjjjjjjjjjjjjjjjjjjjjjjjjjjjjjjjjjjjjjjjjjjjjjjjjjjjjjjjjjjjj",
"jjjjjjjjjjjjjjjjjjjjjjjjjjjjjjjjjjjjjjjjjjjjjjjjjjjjjjjjjjjjjjjjjjjjjjjjjj",
"jjjjjjjjjjjjjjjjjjjjjjjjjjjjjjjjjjjjjjjjjjjjjjjjjjjjjjjjjjjjjjjjjjjjjjjjjj",
"jjjjjjjjjjjjjjjjjjjjjjjjjjjjjjjjjjjjjjjjjjjjjjjjjjjjjjjjjjjjjjjjjjjjjjjjjj",
"jjjjjjjjjjjjjjjjjjjjjjjjjjjjj:uiu>jjjjjooojjjjjjjjjjjjjjjjjjjjjjjjjjjjjjjj",
"jjjjjjjjjjjjjjjjjjjjjjjjjjjjj>uui>:jjjO###oojjjjjjjjjjjjjjjjjjjjjjjjjjjjjj",
"jjjjjjjjjjjjjjjjjjjjjjjjjjjjju>>ui>jj.%$09$$ojjjjjjjjjjjjjjjjjjjjjjjjjjjjj",
"jjjjjjjjjjjjjjjjjjjjjjjjjjjj:>:>>uu:j..O10e-@ojjjjjjjjjjjjjjjjjjjjjjjjjjjj",
"jjjjjjjjjjjjjjjjjjjjjjjjjjj:>:jj:0ywO+O:u0er=@Ojjjjjjjjjjjjjjjjjjjjjjjjjjj",
"jjjjjjjjjjjjjjjjjjjjjjjjjjjj:jjjjw3443,uu>ey0% jjjjjjjjjjjjjjjjjjjjjjjjjjj",
"jjjjjjjjjjjjjjjjjjjjjjjjjjjjjjjjO1qddq1<iu>tr-.jjjjjjjjjjjjjjjjjjjjjjjjjjj",
"jjjjjjjjjjjjjjjjjjjjjjjjjjjjjjjO%2fggd<1ui>rr1.*jjjjjjjjjjjjjjjjjjjjjjjjjj",
"jjjjjjjjjjjjjjjjjjjjjjjjjjjjjjjO%4fggd1+3uu>;1O*jjjjjjjjjjjjjjjjjjjjjjjjjj",
"jjjjjjjjjjjjjjjjjjjjjjjjjjjjjO,O,1qddq1,3>u>O>8*jjjjjjjjjjjjjjjjjjjjjjjjjj",
"jjjjjjjjjjjjjjjjjjjjjjjjjjj.O%,a.313333+53>uO>r%jjjjjjjjjjjjjjjjjjjjjjjjjj",
"jjjjjjjjjjjjjjjjjjjjjjjjjj.::+qf6+,3qq+2q51rOr11jjjjjjjjjjjjjjjjjjjjjjjjjj",
"jjjjjjjjjjjjjjjjjjjjjjjjj.::>u>2fd+O.+,qq52%O%,1jjjjjjjjjjjjjjjjjjjjjjjjjj",
"jjjjjjjjjjjjjjjjjjjjjjjjj.:>uuu>3ffdaq5qq2<%O213q1jjjjjjjjjjjjjjjjjjjjjjjj",
"jjjjjjjjjjjjjjjjjjjjjjjjX:>uiiuu>3dfaaq55<+  22%+8p<jjjjjjjjjjjjjjjjjjjjjj",
"jjjjjjjjjjjjjjjjjjjjjjjo;:uiiiiu>>adaaq<+.   11O1ee8jjjjjjjjjjjjjjjjjjjjjj",
"jjjjjjjjjjjjjjjjjjjjjjjo;Ouiiiiu>>>qq5%.O+O O+%O8e-jjjjjjjjjjjjjjjjjjjjjjj",
"jjjjjjjjjjjjjjjjjjjjjjjow;>uiiuu>r>441.OO1+ O,O,e8-jjjjjjjjjjjjjjjjjjjjjjj",
"jjjjjjjjjjjjjjjjjjjjjjj@%tw>uuu>::&1,%.%<74+ .Ow8s5jjjjjjjjjjjjjjjjjjjjjjj",
"jjjjjjjjjjjjjjjjjjjjjjj ,%wt;&>*8&+%+OO%3471.jje-sh5jjjjjjjjjjjjjjjjjjjjjj",
"jjjjjjjjjjjjjjjjjjjjjj.O.+1%wew8,,1+,.O+332<Ojjwj.hs5jjjjjjjjjjjjjjjjjjjjj",
"jjjjjjjjjjjjjjjjjjjjjj@;0;OO1OO%,%O+.OOO,,<<O j<jj<hs5jjjjjjjjjjjjjjjjjjjj",
"jjjjjjjjjjjjjjjjjjjjjjo-9r8OOOO,11+O.OO.%+>uO   jjj<hs5jjjjjjjjjjjjjjjjjjj",
"jjjjjjjjjjjjjjjjjjjjjjj$wew8OO,<22+  O+O2>>9     jjj<ssjjjjjjjjjjjjjjjjjjj",
"jjjjjjjjjjjjjjjjjjjjjjjO;ew9O%,<22.  +11OOO,O    jjjj<h7jjjjjjjjjjjjjjjjjj",
"jjjjjjjjjjjjjjjjjjjjjjjX=wte9%,<21   .+63134.    jjjjj<h7jjjjjjjjjjjjjjjjj",
"jjjjjjjjjjjjjjjjjjjjjjjj@;et8%O+1,    O2pq62   jjjjjjjj,s7jjjjjjjjjjjjjjjj",
"jjjjjjjjjjjjjjjjjjjjjjjjX-99-++>>O     2ffp, jjjjjjjjjjj<s<jjjjjjjjjjjjjjj",
"jjjjjjjjjjjjjjjjjjjjjjjjj@0-1O+u9       ,aq jjjjjjjjjjjjj<s<jjjjjjjjjjjjjj",
"jjjjjjjjjjjjjjjjjjjjjjjjjjj.,22,.       jjjjjjjjjjjjjjjjjjO7<jjjjjjjjjjjjj",
"jjjjjjjjjjjjjjjjjjjjjjjjjjjj,ap6+    jjjjjjjjjjjjjjjjjjjjjjO7jjjjjjjjjjjjj",
"jjjjjjjjjjjjjjjjjjjjjjjjjjjj,ggp3O   jjjjjjjjjjjjjjjjjjjjjjjOOjjjjjjjjjjjj",
"jjjjjjjjjjjjjjjjjjjjjjjjjjjjOgaap2  jjjjjjjjjjjjjjjjjjjjjjjjjjjjjjjjjjjjjj",
"jjjjjjjjjjjjjjjjjjjjjjjjjjjjjpadfq  jjjjjjjjjjjjjjjjjjjjjjjjjjjjjjjjjjjjjj",
"jjjjjjjjjjjjjjjjjjjjjjjjjjjjj2ddq. jjjjjjjjjjjjjjjjjjjjjjjjjjjjjjjjjjjjjjj",
"jjjjjjjjjjjjjjjjjjjjjjjjjjjjjjjjjjjjjjjjjjjjjjjjjjjjjjjjjjjjjjjjjjjjjjjjjj",
"jjjjjjjjjjjjjjjjjjjjjjjjjjjjjjjjjjjjjjjjjjjjjjjjjjjjjjjjjjjjjjjjjjjjjjjjjj",
"jjjjjjjjjjjjjjjjjjjjjjjjjjjjjjjjjjjjjjjjjjjjjjjjjjjjjjjjjjjjjjjjjjjjjjjjjj",
"jjjjjjjjjjjjjjjjjjjjjjjjjjjjjjjjjjjjjjjjjjjjjjjjjjjjjjjjjjjjjjjjjjjjjjjjjj",
"jjjjjjjjjjjjjjjjjjjjjjjjjjjjjjjjjjjjjjjjjjjjjjjjjjjjjjjjjjjjjjjjjjjjjjjjjj",
"jjjjjjjjjjjjjjjjjjjjjjjjjjjjjjjjjjjjjjjjjjjjjjjjjjjjjjjjjjjjjjjjjjjjjjjjjj",
"jjjjjjjjjjjjjjjjjjjjjjjjjjjjjjjjjjjjjjjjjjjjjjjjjjjjjjjjjjjjjjjjjjjjjjjjjj",
"jjjjjjjjjjjjjjjjjjjjjjjjjjjjjjjjjjjjjjjjjjjjjjjjjjjjjjjjjjjjjjjjjjjjjjjjjj"
};
