/* XPM */
static char *result[] = {
/* columns rows colors chars-per-pixel */
"74 56 47 1 ",
"  c gray8",
". c gray11",
"X c #2C1800",
"o c #282828",
"O c #343434",
"+ c #482C04",
"@ c #503008",
"# c #58380C",
"$ c #443434",
"% c #684000",
"& c #785004",
"* c #644014",
"= c #78581C",
"- c #00044C",
"; c #001474",
": c gray25",
"> c #4C4C4C",
", c #544440",
"< c #585858",
"1 c #685450",
"2 c #646464",
"3 c #6C6C6C",
"4 c #786460",
"5 c gray47",
"6 c #886408",
"7 c #98780C",
"8 c #806024",
"9 c #8C6C28",
"0 c #8C7870",
"q c #A88C10",
"w c #BCA414",
"e c #A08438",
"r c #D0C01C",
"t c #F4E020",
"y c #0428A0",
"u c #0C48CC",
"i c #848484",
"p c #9C8880",
"a c #909090",
"s c gray61",
"d c #B09C90",
"f c gray66",
"g c #B4B4B4",
"h c #C0B0A4",
"j c #D4C4B4",
"k c #C0C0C0",
"l c White",
/* pixels */
"llllllllllllllllllllllllllllllllllllllllllllllllllllllllllllllllllllllllll",
"llllllllllllllllllllllllllllllllllllllllllllllllllllllllllllllllllllllllll",
"llllllllllllllllllllllllllllllllllllllllllllllllllllllllllllllllllllllllll",
"llllllllllllllllllllllllllllllllllllllllllllllllllllllllllllllllllllllllll",
"llllllllllllllllllllllllllllllllllllllllllllllllllllllllllllllllllllllllll",
"llllllllllllllllllllllllllllllllllllllllllllllllllllllllllllllllllllllllll",
"llllllllllllllllllllllllllllllllllllllllllllllllllllllllllllllllllllllllll",
"llllllllllllllllllllllllllllllllllllllllllllllllllllllllllllllllllllllllll",
"llllllllllllllllllllllllllllllllllllllllllllllllllllllllllllllllllllllllll",
"llllllllllllllllllllllllllllllllllllllllllllllllllllllllllllllllllllllllll",
"lllllllllllllllllllllllllllll.llllllllllllllllllllllllllllllllllllllllllll",
"lllllllllllllllllllllllllllllillllllllllllllllllllllllllllllllllllllllllll",
"llllllllllllllllllllllllllll fllllllllllllllllllllllllllllllllllllllllllll",
"llllllllllllllllllllllllllll,kllllllllllllllllllllllllllllllllllllllllllll",
"llllllllllllllllllllllllllll,kllllllllllllllllllllllllllllllllllllllllllll",
"llllllllllllllllllllllllllll,kllllllllllllllllllllllllllllllllllllllllllll",
"llllllllllllllllllllllllllll,kllllllllllllllllllllllllllllllllllllllllllll",
"llllllllllllllllllllllllllll,klllll.12olllllllllllllllllllllllllllllllllll",
"llllllllllllllllllllllllllll,slll.O:$,,ollllllllllllllllllllllllllllllllll",
"llllllllllllllllllllllllllll,alllOO%r6,$llllllllllllllllllllllllllllllllll",
"llllllllllllllllllllllllllll,2ll.$:e;w<,llllllllllllllllllllllllllllllllll",
"lllllllllllllllllllllllllll.$,l..:>&y;1>llllllllllllllllllllllllllllllllll",
"llllllllllllllllllllllllllX@#@--.$>-y;1,O.. llllllllllllllllllllllllllllll",
"lllllllllllllllllllllllll;@8=-;;OO-;yy>$OO----.lllllllllllllllllllllllllll",
"llllllllllllllllllllllll;y=e8;y;O:;yuy;:OO-;;;;-.lllllllllllllllllllllllll",
"llllllllllllllllllllllll;y9reyy;<<yuuy;,1>yyyyy;-%llllllllllllllllllllllll",
"lllllllllllllllllllllll#;y8teuy<piyuy;-2h2uuuuyy;7llllllllllllllllllllllll",
"lllllllllllllllllllllll6;y,twuu5hdyuy-2hj0uuuuy;-7.lllllllllllllllllllllll",
"lllllllllllllllllllllll6;yy9euuidp;uy-ihhiuuuy;-q&,@llllllllllllllllllllll",
"lllllllllllllllllllllll#w;yy=uuiii;yy-3i34yyy;;:q:1@+lllllllllllllllllllll",
"llllllllllllllllllllllo#t#;yyyy100-;y;<332;;;;-t>O1X@lllllllllllllllllllll",
"llllllllllllllllllllllo#8t#-;;;,<OO-;y-,<<-7--t$:O1+6lllllllllllllllllllll",
"lllllllllllllllllllllll@,>tw,--:,OO:-y;><%<--w$O$1$6qlllllllllllllllllllll",
"llllllllllllllllllllllllooO6w7$O:>OOO$yO:O%67ooO$#*qllllllllllllllllllllll",
"lllllllllllllllllllllllllllllOo:1042<>4i0>$,.llll.llllllllllllllllllllllll",
"lllllllllllllllllllllllllllllO.:<ii012ip4<Oo lllllllllllllllllllllllllllll",
"llllllllllllllllllllllllllll :OO,33<,333<:OO:lllllllllllllllllllllllllllll",
"llllllllllllllllllllllllllllo>,<,>:O.oOOOOOo1lllllllllllllllllllllllllllll",
"llllllllllllllllllllllllllll.333<,>oll OOOOo: llllllllllllllllllllllllllll",
"lllllllllllllllllllllllllllll>ii3,O  loO,,,$O.llllllllllllllllllllllllllll",
"lllllllllllllllllllllllllll l>ii3:    ,4151,>ollllllllllllllllllllllllllll",
"llllllllllllllllllllllllll  .O33>O    :<5a50<Ollllllllllllllllllllllllllll",
"llllllllllllllllllllllllll   O::OO    O>aga5>Ollllllllllllllllllllllllllll",
"llllllllllllllllllllllllll   .<4>      >5a5>O>llllllllllllllllllllllllllll",
"llllllllllllllllllllllllll    oO.      o>>>::O lllllllllllllllllllllllllll",
"llllllllllllllllllllllllll             .::,,,o lllllllllllllllllllllllllll",
"lllllllllllllllllllllllllll             ,1,:O  lllllllllllllllllllllllllll",
"llllllllllllllllllllllllllllllllllll    .OO    lllllllllllllllllllllllllll",
"lllllllllllllllllllllllllllllllllllll          lllllllllllllllllllllllllll",
"lllllllllllllllllllllllllllllllllllllll       llllllllllllllllllllllllllll",
"llllllllllllllllllllllllllllllllllllllllllllllllllllllllllllllllllllllllll",
"llllllllllllllllllllllllllllllllllllllllllllllllllllllllllllllllllllllllll",
"llllllllllllllllllllllllllllllllllllllllllllllllllllllllllllllllllllllllll",
"llllllllllllllllllllllllllllllllllllllllllllllllllllllllllllllllllllllllll",
"llllllllllllllllllllllllllllllllllllllllllllllllllllllllllllllllllllllllll",
"llllllllllllllllllllllllllllllllllllllllllllllllllllllllllllllllllllllllll"
};
