/* XPM */
static char *_44d607762cf4773b01b1060133b951fPaTI2RWqkILuTkfh[] = {
/* columns rows colors chars-per-pixel */
"74 56 47 1 ",
"  c None",
". c gray8",
"X c gray11",
"o c #2C1800",
"O c #342000",
"+ c #282828",
"@ c #343434",
"# c #482C04",
"$ c #503008",
"% c #58380C",
"& c #443434",
"* c #684000",
"= c #785004",
"- c #644014",
"; c #6C4C18",
": c #78581C",
"> c #00044C",
", c #001474",
"< c gray25",
"1 c #4C4C4C",
"2 c #544440",
"3 c #585858",
"4 c #685450",
"5 c #646464",
"6 c #6C6C6C",
"7 c #786460",
"8 c gray47",
"9 c #886408",
"0 c #98780C",
"q c #806024",
"w c #8C7870",
"e c #A88C10",
"r c #BCA414",
"t c #A08438",
"y c #D0C01C",
"u c #F4E020",
"i c #B49054",
"p c #0428A0",
"a c #0C48CC",
"s c #848484",
"d c #9C8880",
"f c #909090",
"g c #B09C90",
"h c gray66",
"j c #C0B0A4",
"k c #D4C4B4",
"l c #C0C0C0",
/* pixels */
"                                                                          ",
"                                                                          ",
"                                                                          ",
"                                                                          ",
"                                                                          ",
"                                                                          ",
"                                                                          ",
"                                                                          ",
"                                                                          ",
"                                                                          ",
"                                                                          ",
"                                                                          ",
"                                 OO#$$OO                                  ",
"                                O%;:q;-$X                                 ",
"                                %qtyytq%#o                                ",
"                               $;@@@@>,ppp,>                              ",
"                               +@&1<qtppaap>                              ",
"                               @<772qy,,ppa,>                             ",
"                              @&7wwwiqy&<<pa>                             ",
"                              +&7wgkjw251@,p,                             ",
"                              @<7wjlkw237<.,p>                            ",
"                              @&7wwgg5<@4<X>p>                            ",
"                   <5fhllhhf51+<17ww511+5<+ ,,                            ",
"              X@<8sffffffffff5+@<11<<@+3s3< >,                            ",
"                              XX++@@33sss5@  p                            ",
"                              .&38sssggss5@                               ",
"                              38883<>>><33@                               ",
"                              683<>>>>>>><@                               ",
"                              63<>,pppp,>><                               ",
"                              6<>,ppaapp,>>-                              ",
"                              @>,,paaaap,,>:                              ",
"                              <=,,paaaap,,>-                              ",
"                              +e>,ppaapp,,:*                              ",
"                               =ee=,ppp=e:*.                              ",
"                               @1=euurre=...                              ",
"                               <1<&+:3342...                              ",
"                               @<+;&@<2<+....                             ",
"                               .X-:;;&++@+...                             ",
"                               .&;0e9q:&&2...                             ",
"                               X-;eue0;-&1X..                             ",
"                               X;00e0:;221+..                             ",
"                               .;9u0926852X..                             ",
"                               .&e9;2;553<..                              ",
"                               ..&-&@<<1<@..                              ",
"                               ...<31<<<1@.                               ",
"                                .<5744752..                               ",
"                                .@ws7sks<..                               ",
"                                 .3ddjj4X.                                ",
"                                  .4d3+..                                 ",
"                                                                          ",
"                                                                          ",
"                                                                          ",
"                                                                          ",
"                                                                          ",
"                                                                          ",
"                                                                          "
};
